%TF.GenerationSoftware,KiCad,Pcbnew,8.0.1*%
%TF.CreationDate,2024-05-01T10:03:54+09:00*%
%TF.ProjectId,LaserControlConnector,4c617365-7243-46f6-9e74-726f6c436f6e,rev?*%
%TF.SameCoordinates,Original*%
%TF.FileFunction,Profile,NP*%
%FSLAX46Y46*%
G04 Gerber Fmt 4.6, Leading zero omitted, Abs format (unit mm)*
G04 Created by KiCad (PCBNEW 8.0.1) date 2024-05-01 10:03:54*
%MOMM*%
%LPD*%
G01*
G04 APERTURE LIST*
%TA.AperFunction,Profile*%
%ADD10C,0.100000*%
%TD*%
G04 APERTURE END LIST*
D10*
X128016000Y-80899000D02*
X128016000Y-98298000D01*
X131064000Y-77851000D02*
X131064000Y-70104000D01*
X141732000Y-69596000D02*
X142748000Y-69596000D01*
X136144000Y-70104000D02*
G75*
G02*
X136652000Y-69596000I508000J0D01*
G01*
X132588000Y-69596000D02*
G75*
G02*
X133096000Y-70104000I0J-508000D01*
G01*
X136652000Y-69596000D02*
X137668000Y-69596000D01*
X129540000Y-99822000D02*
G75*
G02*
X128016000Y-98298000I0J1524000D01*
G01*
X131064000Y-77851000D02*
G75*
G02*
X129540000Y-79375000I-1519700J-4300D01*
G01*
X136144000Y-77851000D02*
X136144000Y-70104000D01*
X133096000Y-77851000D02*
X133096000Y-70104000D01*
X141224000Y-70104000D02*
G75*
G02*
X141732000Y-69596000I508000J0D01*
G01*
X137668000Y-69596000D02*
G75*
G02*
X138176000Y-70104000I0J-508000D01*
G01*
X154940000Y-79375000D02*
G75*
G02*
X153416000Y-77851000I0J1524000D01*
G01*
X156464000Y-80899000D02*
X156464000Y-98298000D01*
X151384000Y-77851000D02*
G75*
G02*
X148336000Y-77851000I-1524000J0D01*
G01*
X151892000Y-69596000D02*
X152908000Y-69596000D01*
X153416000Y-77851000D02*
X153416000Y-70104000D01*
X142748000Y-69596000D02*
G75*
G02*
X143256000Y-70104000I0J-508000D01*
G01*
X146304000Y-77851000D02*
G75*
G02*
X143256000Y-77851000I-1524000J0D01*
G01*
X147828000Y-69596000D02*
G75*
G02*
X148336000Y-70104000I0J-508000D01*
G01*
X131572000Y-69596000D02*
X132588000Y-69596000D01*
X143256000Y-77851000D02*
X143256000Y-70104000D01*
X136144000Y-77851000D02*
G75*
G02*
X133096000Y-77851000I-1524000J0D01*
G01*
X151384000Y-77851000D02*
X151384000Y-70104000D01*
X148336000Y-77851000D02*
X148336000Y-70104000D01*
X138176000Y-77851000D02*
X138176000Y-70104000D01*
X154940000Y-79375000D02*
G75*
G02*
X156464000Y-80899000I0J-1524000D01*
G01*
X152908000Y-69596000D02*
G75*
G02*
X153416000Y-70104000I0J-508000D01*
G01*
X131064000Y-70104000D02*
G75*
G02*
X131572000Y-69596000I508000J0D01*
G01*
X141224000Y-77851000D02*
G75*
G02*
X138176000Y-77851000I-1524000J0D01*
G01*
X151384000Y-70104000D02*
G75*
G02*
X151892000Y-69596000I508000J0D01*
G01*
X129540000Y-99822000D02*
X154940000Y-99822000D01*
X146304000Y-70104000D02*
G75*
G02*
X146812000Y-69596000I508000J0D01*
G01*
X156464000Y-98298000D02*
G75*
G02*
X154940000Y-99822000I-1524000J0D01*
G01*
X141224000Y-77851000D02*
X141224000Y-70104000D01*
X128016000Y-80899000D02*
G75*
G02*
X129540000Y-79375000I1524000J0D01*
G01*
X146812000Y-69596000D02*
X147828000Y-69596000D01*
X146304000Y-77851000D02*
X146304000Y-70104000D01*
M02*
