%TF.GenerationSoftware,KiCad,Pcbnew,8.0.1*%
%TF.CreationDate,2024-05-01T10:03:54+09:00*%
%TF.ProjectId,LaserControlConnector,4c617365-7243-46f6-9e74-726f6c436f6e,rev?*%
%TF.SameCoordinates,Original*%
%TF.FileFunction,Legend,Top*%
%TF.FilePolarity,Positive*%
%FSLAX46Y46*%
G04 Gerber Fmt 4.6, Leading zero omitted, Abs format (unit mm)*
G04 Created by KiCad (PCBNEW 8.0.1) date 2024-05-01 10:03:54*
%MOMM*%
%LPD*%
G01*
G04 APERTURE LIST*
%ADD10C,0.150000*%
%ADD11C,0.100000*%
%ADD12C,0.120000*%
G04 APERTURE END LIST*
D10*
X152209523Y-83274819D02*
X151733333Y-83274819D01*
X151733333Y-83274819D02*
X151685714Y-83751009D01*
X151685714Y-83751009D02*
X151733333Y-83703390D01*
X151733333Y-83703390D02*
X151828571Y-83655771D01*
X151828571Y-83655771D02*
X152066666Y-83655771D01*
X152066666Y-83655771D02*
X152161904Y-83703390D01*
X152161904Y-83703390D02*
X152209523Y-83751009D01*
X152209523Y-83751009D02*
X152257142Y-83846247D01*
X152257142Y-83846247D02*
X152257142Y-84084342D01*
X152257142Y-84084342D02*
X152209523Y-84179580D01*
X152209523Y-84179580D02*
X152161904Y-84227200D01*
X152161904Y-84227200D02*
X152066666Y-84274819D01*
X152066666Y-84274819D02*
X151828571Y-84274819D01*
X151828571Y-84274819D02*
X151733333Y-84227200D01*
X151733333Y-84227200D02*
X151685714Y-84179580D01*
X152542857Y-83274819D02*
X152876190Y-84274819D01*
X152876190Y-84274819D02*
X153209523Y-83274819D01*
D11*
X140109800Y-91725428D02*
X140157419Y-91582571D01*
X140157419Y-91582571D02*
X140157419Y-91344476D01*
X140157419Y-91344476D02*
X140109800Y-91249238D01*
X140109800Y-91249238D02*
X140062180Y-91201619D01*
X140062180Y-91201619D02*
X139966942Y-91154000D01*
X139966942Y-91154000D02*
X139871704Y-91154000D01*
X139871704Y-91154000D02*
X139776466Y-91201619D01*
X139776466Y-91201619D02*
X139728847Y-91249238D01*
X139728847Y-91249238D02*
X139681228Y-91344476D01*
X139681228Y-91344476D02*
X139633609Y-91534952D01*
X139633609Y-91534952D02*
X139585990Y-91630190D01*
X139585990Y-91630190D02*
X139538371Y-91677809D01*
X139538371Y-91677809D02*
X139443133Y-91725428D01*
X139443133Y-91725428D02*
X139347895Y-91725428D01*
X139347895Y-91725428D02*
X139252657Y-91677809D01*
X139252657Y-91677809D02*
X139205038Y-91630190D01*
X139205038Y-91630190D02*
X139157419Y-91534952D01*
X139157419Y-91534952D02*
X139157419Y-91296857D01*
X139157419Y-91296857D02*
X139205038Y-91154000D01*
X140157419Y-90725428D02*
X139157419Y-90725428D01*
X139157419Y-90725428D02*
X139157419Y-90344476D01*
X139157419Y-90344476D02*
X139205038Y-90249238D01*
X139205038Y-90249238D02*
X139252657Y-90201619D01*
X139252657Y-90201619D02*
X139347895Y-90154000D01*
X139347895Y-90154000D02*
X139490752Y-90154000D01*
X139490752Y-90154000D02*
X139585990Y-90201619D01*
X139585990Y-90201619D02*
X139633609Y-90249238D01*
X139633609Y-90249238D02*
X139681228Y-90344476D01*
X139681228Y-90344476D02*
X139681228Y-90725428D01*
X139776466Y-89725428D02*
X139776466Y-88963524D01*
X139157419Y-88630190D02*
X139157419Y-88058762D01*
X140157419Y-88344476D02*
X139157419Y-88344476D01*
X139157419Y-87868285D02*
X139157419Y-87296857D01*
X140157419Y-87582571D02*
X139157419Y-87582571D01*
X140157419Y-86487333D02*
X140157419Y-86963523D01*
X140157419Y-86963523D02*
X139157419Y-86963523D01*
D10*
X146796191Y-84274819D02*
X146796191Y-83274819D01*
X147272381Y-84274819D02*
X147272381Y-83274819D01*
X147272381Y-83274819D02*
X147843809Y-84274819D01*
X147843809Y-84274819D02*
X147843809Y-83274819D01*
X141478095Y-83322438D02*
X141382857Y-83274819D01*
X141382857Y-83274819D02*
X141240000Y-83274819D01*
X141240000Y-83274819D02*
X141097143Y-83322438D01*
X141097143Y-83322438D02*
X141001905Y-83417676D01*
X141001905Y-83417676D02*
X140954286Y-83512914D01*
X140954286Y-83512914D02*
X140906667Y-83703390D01*
X140906667Y-83703390D02*
X140906667Y-83846247D01*
X140906667Y-83846247D02*
X140954286Y-84036723D01*
X140954286Y-84036723D02*
X141001905Y-84131961D01*
X141001905Y-84131961D02*
X141097143Y-84227200D01*
X141097143Y-84227200D02*
X141240000Y-84274819D01*
X141240000Y-84274819D02*
X141335238Y-84274819D01*
X141335238Y-84274819D02*
X141478095Y-84227200D01*
X141478095Y-84227200D02*
X141525714Y-84179580D01*
X141525714Y-84179580D02*
X141525714Y-83846247D01*
X141525714Y-83846247D02*
X141335238Y-83846247D01*
X141954286Y-84274819D02*
X141954286Y-83274819D01*
X141954286Y-83274819D02*
X142525714Y-84274819D01*
X142525714Y-84274819D02*
X142525714Y-83274819D01*
X143001905Y-84274819D02*
X143001905Y-83274819D01*
X143001905Y-83274819D02*
X143240000Y-83274819D01*
X143240000Y-83274819D02*
X143382857Y-83322438D01*
X143382857Y-83322438D02*
X143478095Y-83417676D01*
X143478095Y-83417676D02*
X143525714Y-83512914D01*
X143525714Y-83512914D02*
X143573333Y-83703390D01*
X143573333Y-83703390D02*
X143573333Y-83846247D01*
X143573333Y-83846247D02*
X143525714Y-84036723D01*
X143525714Y-84036723D02*
X143478095Y-84131961D01*
X143478095Y-84131961D02*
X143382857Y-84227200D01*
X143382857Y-84227200D02*
X143240000Y-84274819D01*
X143240000Y-84274819D02*
X143001905Y-84274819D01*
D11*
X129949800Y-92082570D02*
X129997419Y-91939713D01*
X129997419Y-91939713D02*
X129997419Y-91701618D01*
X129997419Y-91701618D02*
X129949800Y-91606380D01*
X129949800Y-91606380D02*
X129902180Y-91558761D01*
X129902180Y-91558761D02*
X129806942Y-91511142D01*
X129806942Y-91511142D02*
X129711704Y-91511142D01*
X129711704Y-91511142D02*
X129616466Y-91558761D01*
X129616466Y-91558761D02*
X129568847Y-91606380D01*
X129568847Y-91606380D02*
X129521228Y-91701618D01*
X129521228Y-91701618D02*
X129473609Y-91892094D01*
X129473609Y-91892094D02*
X129425990Y-91987332D01*
X129425990Y-91987332D02*
X129378371Y-92034951D01*
X129378371Y-92034951D02*
X129283133Y-92082570D01*
X129283133Y-92082570D02*
X129187895Y-92082570D01*
X129187895Y-92082570D02*
X129092657Y-92034951D01*
X129092657Y-92034951D02*
X129045038Y-91987332D01*
X129045038Y-91987332D02*
X128997419Y-91892094D01*
X128997419Y-91892094D02*
X128997419Y-91653999D01*
X128997419Y-91653999D02*
X129045038Y-91511142D01*
X129997419Y-91082570D02*
X128997419Y-91082570D01*
X128997419Y-91082570D02*
X128997419Y-90701618D01*
X128997419Y-90701618D02*
X129045038Y-90606380D01*
X129045038Y-90606380D02*
X129092657Y-90558761D01*
X129092657Y-90558761D02*
X129187895Y-90511142D01*
X129187895Y-90511142D02*
X129330752Y-90511142D01*
X129330752Y-90511142D02*
X129425990Y-90558761D01*
X129425990Y-90558761D02*
X129473609Y-90606380D01*
X129473609Y-90606380D02*
X129521228Y-90701618D01*
X129521228Y-90701618D02*
X129521228Y-91082570D01*
X129616466Y-90082570D02*
X129616466Y-89320666D01*
X129045038Y-88320666D02*
X128997419Y-88415904D01*
X128997419Y-88415904D02*
X128997419Y-88558761D01*
X128997419Y-88558761D02*
X129045038Y-88701618D01*
X129045038Y-88701618D02*
X129140276Y-88796856D01*
X129140276Y-88796856D02*
X129235514Y-88844475D01*
X129235514Y-88844475D02*
X129425990Y-88892094D01*
X129425990Y-88892094D02*
X129568847Y-88892094D01*
X129568847Y-88892094D02*
X129759323Y-88844475D01*
X129759323Y-88844475D02*
X129854561Y-88796856D01*
X129854561Y-88796856D02*
X129949800Y-88701618D01*
X129949800Y-88701618D02*
X129997419Y-88558761D01*
X129997419Y-88558761D02*
X129997419Y-88463523D01*
X129997419Y-88463523D02*
X129949800Y-88320666D01*
X129949800Y-88320666D02*
X129902180Y-88273047D01*
X129902180Y-88273047D02*
X129568847Y-88273047D01*
X129568847Y-88273047D02*
X129568847Y-88463523D01*
X129997419Y-87844475D02*
X128997419Y-87844475D01*
X128997419Y-87844475D02*
X129997419Y-87273047D01*
X129997419Y-87273047D02*
X128997419Y-87273047D01*
X129997419Y-86796856D02*
X128997419Y-86796856D01*
X128997419Y-86796856D02*
X128997419Y-86558761D01*
X128997419Y-86558761D02*
X129045038Y-86415904D01*
X129045038Y-86415904D02*
X129140276Y-86320666D01*
X129140276Y-86320666D02*
X129235514Y-86273047D01*
X129235514Y-86273047D02*
X129425990Y-86225428D01*
X129425990Y-86225428D02*
X129568847Y-86225428D01*
X129568847Y-86225428D02*
X129759323Y-86273047D01*
X129759323Y-86273047D02*
X129854561Y-86320666D01*
X129854561Y-86320666D02*
X129949800Y-86415904D01*
X129949800Y-86415904D02*
X129997419Y-86558761D01*
X129997419Y-86558761D02*
X129997419Y-86796856D01*
X153127419Y-89987332D02*
X154127419Y-89653999D01*
X154127419Y-89653999D02*
X153127419Y-89320666D01*
X154127419Y-88415904D02*
X153651228Y-88749237D01*
X154127419Y-88987332D02*
X153127419Y-88987332D01*
X153127419Y-88987332D02*
X153127419Y-88606380D01*
X153127419Y-88606380D02*
X153175038Y-88511142D01*
X153175038Y-88511142D02*
X153222657Y-88463523D01*
X153222657Y-88463523D02*
X153317895Y-88415904D01*
X153317895Y-88415904D02*
X153460752Y-88415904D01*
X153460752Y-88415904D02*
X153555990Y-88463523D01*
X153555990Y-88463523D02*
X153603609Y-88511142D01*
X153603609Y-88511142D02*
X153651228Y-88606380D01*
X153651228Y-88606380D02*
X153651228Y-88987332D01*
D10*
X130080000Y-84274819D02*
X130080000Y-83274819D01*
X130080000Y-83274819D02*
X130460952Y-83274819D01*
X130460952Y-83274819D02*
X130556190Y-83322438D01*
X130556190Y-83322438D02*
X130603809Y-83370057D01*
X130603809Y-83370057D02*
X130651428Y-83465295D01*
X130651428Y-83465295D02*
X130651428Y-83608152D01*
X130651428Y-83608152D02*
X130603809Y-83703390D01*
X130603809Y-83703390D02*
X130556190Y-83751009D01*
X130556190Y-83751009D02*
X130460952Y-83798628D01*
X130460952Y-83798628D02*
X130080000Y-83798628D01*
X131365714Y-84655771D02*
X131318095Y-84608152D01*
X131318095Y-84608152D02*
X131222857Y-84465295D01*
X131222857Y-84465295D02*
X131175238Y-84370057D01*
X131175238Y-84370057D02*
X131127619Y-84227200D01*
X131127619Y-84227200D02*
X131080000Y-83989104D01*
X131080000Y-83989104D02*
X131080000Y-83798628D01*
X131080000Y-83798628D02*
X131127619Y-83560533D01*
X131127619Y-83560533D02*
X131175238Y-83417676D01*
X131175238Y-83417676D02*
X131222857Y-83322438D01*
X131222857Y-83322438D02*
X131318095Y-83179580D01*
X131318095Y-83179580D02*
X131365714Y-83131961D01*
X131651429Y-83274819D02*
X131889524Y-84274819D01*
X131889524Y-84274819D02*
X132080000Y-83560533D01*
X132080000Y-83560533D02*
X132270476Y-84274819D01*
X132270476Y-84274819D02*
X132508572Y-83274819D01*
X132889524Y-84274819D02*
X132889524Y-83274819D01*
X132889524Y-83274819D02*
X133270476Y-83274819D01*
X133270476Y-83274819D02*
X133365714Y-83322438D01*
X133365714Y-83322438D02*
X133413333Y-83370057D01*
X133413333Y-83370057D02*
X133460952Y-83465295D01*
X133460952Y-83465295D02*
X133460952Y-83608152D01*
X133460952Y-83608152D02*
X133413333Y-83703390D01*
X133413333Y-83703390D02*
X133365714Y-83751009D01*
X133365714Y-83751009D02*
X133270476Y-83798628D01*
X133270476Y-83798628D02*
X132889524Y-83798628D01*
X133794286Y-84655771D02*
X133841905Y-84608152D01*
X133841905Y-84608152D02*
X133937143Y-84465295D01*
X133937143Y-84465295D02*
X133984762Y-84370057D01*
X133984762Y-84370057D02*
X134032381Y-84227200D01*
X134032381Y-84227200D02*
X134080000Y-83989104D01*
X134080000Y-83989104D02*
X134080000Y-83798628D01*
X134080000Y-83798628D02*
X134032381Y-83560533D01*
X134032381Y-83560533D02*
X133984762Y-83417676D01*
X133984762Y-83417676D02*
X133937143Y-83322438D01*
X133937143Y-83322438D02*
X133841905Y-83179580D01*
X133841905Y-83179580D02*
X133794286Y-83131961D01*
X136493333Y-84274819D02*
X136017143Y-84274819D01*
X136017143Y-84274819D02*
X136017143Y-83274819D01*
X136779048Y-84227200D02*
X136921905Y-84274819D01*
X136921905Y-84274819D02*
X137160000Y-84274819D01*
X137160000Y-84274819D02*
X137255238Y-84227200D01*
X137255238Y-84227200D02*
X137302857Y-84179580D01*
X137302857Y-84179580D02*
X137350476Y-84084342D01*
X137350476Y-84084342D02*
X137350476Y-83989104D01*
X137350476Y-83989104D02*
X137302857Y-83893866D01*
X137302857Y-83893866D02*
X137255238Y-83846247D01*
X137255238Y-83846247D02*
X137160000Y-83798628D01*
X137160000Y-83798628D02*
X136969524Y-83751009D01*
X136969524Y-83751009D02*
X136874286Y-83703390D01*
X136874286Y-83703390D02*
X136826667Y-83655771D01*
X136826667Y-83655771D02*
X136779048Y-83560533D01*
X136779048Y-83560533D02*
X136779048Y-83465295D01*
X136779048Y-83465295D02*
X136826667Y-83370057D01*
X136826667Y-83370057D02*
X136874286Y-83322438D01*
X136874286Y-83322438D02*
X136969524Y-83274819D01*
X136969524Y-83274819D02*
X137207619Y-83274819D01*
X137207619Y-83274819D02*
X137350476Y-83322438D01*
X138350476Y-84274819D02*
X138017143Y-83798628D01*
X137779048Y-84274819D02*
X137779048Y-83274819D01*
X137779048Y-83274819D02*
X138160000Y-83274819D01*
X138160000Y-83274819D02*
X138255238Y-83322438D01*
X138255238Y-83322438D02*
X138302857Y-83370057D01*
X138302857Y-83370057D02*
X138350476Y-83465295D01*
X138350476Y-83465295D02*
X138350476Y-83608152D01*
X138350476Y-83608152D02*
X138302857Y-83703390D01*
X138302857Y-83703390D02*
X138255238Y-83751009D01*
X138255238Y-83751009D02*
X138160000Y-83798628D01*
X138160000Y-83798628D02*
X137779048Y-83798628D01*
D11*
X133189431Y-93737847D02*
X133303717Y-93775942D01*
X133303717Y-93775942D02*
X133341812Y-93814038D01*
X133341812Y-93814038D02*
X133379908Y-93890228D01*
X133379908Y-93890228D02*
X133379908Y-94004514D01*
X133379908Y-94004514D02*
X133341812Y-94080704D01*
X133341812Y-94080704D02*
X133303717Y-94118800D01*
X133303717Y-94118800D02*
X133227527Y-94156895D01*
X133227527Y-94156895D02*
X132922765Y-94156895D01*
X132922765Y-94156895D02*
X132922765Y-93356895D01*
X132922765Y-93356895D02*
X133189431Y-93356895D01*
X133189431Y-93356895D02*
X133265622Y-93394990D01*
X133265622Y-93394990D02*
X133303717Y-93433085D01*
X133303717Y-93433085D02*
X133341812Y-93509276D01*
X133341812Y-93509276D02*
X133341812Y-93585466D01*
X133341812Y-93585466D02*
X133303717Y-93661657D01*
X133303717Y-93661657D02*
X133265622Y-93699752D01*
X133265622Y-93699752D02*
X133189431Y-93737847D01*
X133189431Y-93737847D02*
X132922765Y-93737847D01*
X133684669Y-94118800D02*
X133798955Y-94156895D01*
X133798955Y-94156895D02*
X133989431Y-94156895D01*
X133989431Y-94156895D02*
X134065622Y-94118800D01*
X134065622Y-94118800D02*
X134103717Y-94080704D01*
X134103717Y-94080704D02*
X134141812Y-94004514D01*
X134141812Y-94004514D02*
X134141812Y-93928323D01*
X134141812Y-93928323D02*
X134103717Y-93852133D01*
X134103717Y-93852133D02*
X134065622Y-93814038D01*
X134065622Y-93814038D02*
X133989431Y-93775942D01*
X133989431Y-93775942D02*
X133837050Y-93737847D01*
X133837050Y-93737847D02*
X133760860Y-93699752D01*
X133760860Y-93699752D02*
X133722765Y-93661657D01*
X133722765Y-93661657D02*
X133684669Y-93585466D01*
X133684669Y-93585466D02*
X133684669Y-93509276D01*
X133684669Y-93509276D02*
X133722765Y-93433085D01*
X133722765Y-93433085D02*
X133760860Y-93394990D01*
X133760860Y-93394990D02*
X133837050Y-93356895D01*
X133837050Y-93356895D02*
X134027527Y-93356895D01*
X134027527Y-93356895D02*
X134141812Y-93394990D01*
X134446574Y-94118800D02*
X134560860Y-94156895D01*
X134560860Y-94156895D02*
X134751336Y-94156895D01*
X134751336Y-94156895D02*
X134827527Y-94118800D01*
X134827527Y-94118800D02*
X134865622Y-94080704D01*
X134865622Y-94080704D02*
X134903717Y-94004514D01*
X134903717Y-94004514D02*
X134903717Y-93928323D01*
X134903717Y-93928323D02*
X134865622Y-93852133D01*
X134865622Y-93852133D02*
X134827527Y-93814038D01*
X134827527Y-93814038D02*
X134751336Y-93775942D01*
X134751336Y-93775942D02*
X134598955Y-93737847D01*
X134598955Y-93737847D02*
X134522765Y-93699752D01*
X134522765Y-93699752D02*
X134484670Y-93661657D01*
X134484670Y-93661657D02*
X134446574Y-93585466D01*
X134446574Y-93585466D02*
X134446574Y-93509276D01*
X134446574Y-93509276D02*
X134484670Y-93433085D01*
X134484670Y-93433085D02*
X134522765Y-93394990D01*
X134522765Y-93394990D02*
X134598955Y-93356895D01*
X134598955Y-93356895D02*
X134789432Y-93356895D01*
X134789432Y-93356895D02*
X134903717Y-93394990D01*
X135665622Y-94156895D02*
X135208479Y-94156895D01*
X135437051Y-94156895D02*
X135437051Y-93356895D01*
X135437051Y-93356895D02*
X135360860Y-93471180D01*
X135360860Y-93471180D02*
X135284670Y-93547371D01*
X135284670Y-93547371D02*
X135208479Y-93585466D01*
X135932289Y-93356895D02*
X136427527Y-93356895D01*
X136427527Y-93356895D02*
X136160861Y-93661657D01*
X136160861Y-93661657D02*
X136275146Y-93661657D01*
X136275146Y-93661657D02*
X136351337Y-93699752D01*
X136351337Y-93699752D02*
X136389432Y-93737847D01*
X136389432Y-93737847D02*
X136427527Y-93814038D01*
X136427527Y-93814038D02*
X136427527Y-94004514D01*
X136427527Y-94004514D02*
X136389432Y-94080704D01*
X136389432Y-94080704D02*
X136351337Y-94118800D01*
X136351337Y-94118800D02*
X136275146Y-94156895D01*
X136275146Y-94156895D02*
X136046575Y-94156895D01*
X136046575Y-94156895D02*
X135970384Y-94118800D01*
X135970384Y-94118800D02*
X135932289Y-94080704D01*
X136884670Y-93699752D02*
X136808480Y-93661657D01*
X136808480Y-93661657D02*
X136770385Y-93623561D01*
X136770385Y-93623561D02*
X136732289Y-93547371D01*
X136732289Y-93547371D02*
X136732289Y-93509276D01*
X136732289Y-93509276D02*
X136770385Y-93433085D01*
X136770385Y-93433085D02*
X136808480Y-93394990D01*
X136808480Y-93394990D02*
X136884670Y-93356895D01*
X136884670Y-93356895D02*
X137037051Y-93356895D01*
X137037051Y-93356895D02*
X137113242Y-93394990D01*
X137113242Y-93394990D02*
X137151337Y-93433085D01*
X137151337Y-93433085D02*
X137189432Y-93509276D01*
X137189432Y-93509276D02*
X137189432Y-93547371D01*
X137189432Y-93547371D02*
X137151337Y-93623561D01*
X137151337Y-93623561D02*
X137113242Y-93661657D01*
X137113242Y-93661657D02*
X137037051Y-93699752D01*
X137037051Y-93699752D02*
X136884670Y-93699752D01*
X136884670Y-93699752D02*
X136808480Y-93737847D01*
X136808480Y-93737847D02*
X136770385Y-93775942D01*
X136770385Y-93775942D02*
X136732289Y-93852133D01*
X136732289Y-93852133D02*
X136732289Y-94004514D01*
X136732289Y-94004514D02*
X136770385Y-94080704D01*
X136770385Y-94080704D02*
X136808480Y-94118800D01*
X136808480Y-94118800D02*
X136884670Y-94156895D01*
X136884670Y-94156895D02*
X137037051Y-94156895D01*
X137037051Y-94156895D02*
X137113242Y-94118800D01*
X137113242Y-94118800D02*
X137151337Y-94080704D01*
X137151337Y-94080704D02*
X137189432Y-94004514D01*
X137189432Y-94004514D02*
X137189432Y-93852133D01*
X137189432Y-93852133D02*
X137151337Y-93775942D01*
X137151337Y-93775942D02*
X137113242Y-93737847D01*
X137113242Y-93737847D02*
X137037051Y-93699752D01*
D10*
X134306666Y-84804819D02*
X134306666Y-85519104D01*
X134306666Y-85519104D02*
X134259047Y-85661961D01*
X134259047Y-85661961D02*
X134163809Y-85757200D01*
X134163809Y-85757200D02*
X134020952Y-85804819D01*
X134020952Y-85804819D02*
X133925714Y-85804819D01*
X134735238Y-84900057D02*
X134782857Y-84852438D01*
X134782857Y-84852438D02*
X134878095Y-84804819D01*
X134878095Y-84804819D02*
X135116190Y-84804819D01*
X135116190Y-84804819D02*
X135211428Y-84852438D01*
X135211428Y-84852438D02*
X135259047Y-84900057D01*
X135259047Y-84900057D02*
X135306666Y-84995295D01*
X135306666Y-84995295D02*
X135306666Y-85090533D01*
X135306666Y-85090533D02*
X135259047Y-85233390D01*
X135259047Y-85233390D02*
X134687619Y-85804819D01*
X134687619Y-85804819D02*
X135306666Y-85804819D01*
X139708095Y-95562057D02*
X139755714Y-95514438D01*
X139755714Y-95514438D02*
X139850952Y-95466819D01*
X139850952Y-95466819D02*
X140089047Y-95466819D01*
X140089047Y-95466819D02*
X140184285Y-95514438D01*
X140184285Y-95514438D02*
X140231904Y-95562057D01*
X140231904Y-95562057D02*
X140279523Y-95657295D01*
X140279523Y-95657295D02*
X140279523Y-95752533D01*
X140279523Y-95752533D02*
X140231904Y-95895390D01*
X140231904Y-95895390D02*
X139660476Y-96466819D01*
X139660476Y-96466819D02*
X140279523Y-96466819D01*
X140660476Y-95562057D02*
X140708095Y-95514438D01*
X140708095Y-95514438D02*
X140803333Y-95466819D01*
X140803333Y-95466819D02*
X141041428Y-95466819D01*
X141041428Y-95466819D02*
X141136666Y-95514438D01*
X141136666Y-95514438D02*
X141184285Y-95562057D01*
X141184285Y-95562057D02*
X141231904Y-95657295D01*
X141231904Y-95657295D02*
X141231904Y-95752533D01*
X141231904Y-95752533D02*
X141184285Y-95895390D01*
X141184285Y-95895390D02*
X140612857Y-96466819D01*
X140612857Y-96466819D02*
X141231904Y-96466819D01*
X141660476Y-96466819D02*
X141660476Y-95466819D01*
X142231904Y-96466819D02*
X141803333Y-95895390D01*
X142231904Y-95466819D02*
X141660476Y-96038247D01*
X147026666Y-84804819D02*
X147026666Y-85519104D01*
X147026666Y-85519104D02*
X146979047Y-85661961D01*
X146979047Y-85661961D02*
X146883809Y-85757200D01*
X146883809Y-85757200D02*
X146740952Y-85804819D01*
X146740952Y-85804819D02*
X146645714Y-85804819D01*
X148026666Y-85804819D02*
X147455238Y-85804819D01*
X147740952Y-85804819D02*
X147740952Y-84804819D01*
X147740952Y-84804819D02*
X147645714Y-84947676D01*
X147645714Y-84947676D02*
X147550476Y-85042914D01*
X147550476Y-85042914D02*
X147455238Y-85090533D01*
X149511048Y-96419200D02*
X149653905Y-96466819D01*
X149653905Y-96466819D02*
X149892000Y-96466819D01*
X149892000Y-96466819D02*
X149987238Y-96419200D01*
X149987238Y-96419200D02*
X150034857Y-96371580D01*
X150034857Y-96371580D02*
X150082476Y-96276342D01*
X150082476Y-96276342D02*
X150082476Y-96181104D01*
X150082476Y-96181104D02*
X150034857Y-96085866D01*
X150034857Y-96085866D02*
X149987238Y-96038247D01*
X149987238Y-96038247D02*
X149892000Y-95990628D01*
X149892000Y-95990628D02*
X149701524Y-95943009D01*
X149701524Y-95943009D02*
X149606286Y-95895390D01*
X149606286Y-95895390D02*
X149558667Y-95847771D01*
X149558667Y-95847771D02*
X149511048Y-95752533D01*
X149511048Y-95752533D02*
X149511048Y-95657295D01*
X149511048Y-95657295D02*
X149558667Y-95562057D01*
X149558667Y-95562057D02*
X149606286Y-95514438D01*
X149606286Y-95514438D02*
X149701524Y-95466819D01*
X149701524Y-95466819D02*
X149939619Y-95466819D01*
X149939619Y-95466819D02*
X150082476Y-95514438D01*
X150511048Y-96466819D02*
X150511048Y-95466819D01*
X151511047Y-95514438D02*
X151415809Y-95466819D01*
X151415809Y-95466819D02*
X151272952Y-95466819D01*
X151272952Y-95466819D02*
X151130095Y-95514438D01*
X151130095Y-95514438D02*
X151034857Y-95609676D01*
X151034857Y-95609676D02*
X150987238Y-95704914D01*
X150987238Y-95704914D02*
X150939619Y-95895390D01*
X150939619Y-95895390D02*
X150939619Y-96038247D01*
X150939619Y-96038247D02*
X150987238Y-96228723D01*
X150987238Y-96228723D02*
X151034857Y-96323961D01*
X151034857Y-96323961D02*
X151130095Y-96419200D01*
X151130095Y-96419200D02*
X151272952Y-96466819D01*
X151272952Y-96466819D02*
X151368190Y-96466819D01*
X151368190Y-96466819D02*
X151511047Y-96419200D01*
X151511047Y-96419200D02*
X151558666Y-96371580D01*
X151558666Y-96371580D02*
X151558666Y-96038247D01*
X151558666Y-96038247D02*
X151368190Y-96038247D01*
X151987238Y-96466819D02*
X151987238Y-95466819D01*
X151987238Y-95466819D02*
X152558666Y-96466819D01*
X152558666Y-96466819D02*
X152558666Y-95466819D01*
X152987238Y-96181104D02*
X153463428Y-96181104D01*
X152892000Y-96466819D02*
X153225333Y-95466819D01*
X153225333Y-95466819D02*
X153558666Y-96466819D01*
X154368190Y-96466819D02*
X153892000Y-96466819D01*
X153892000Y-96466819D02*
X153892000Y-95466819D01*
D12*
%TO.C,Q2*%
X134952500Y-94518000D02*
X134302500Y-94518000D01*
X134952500Y-94518000D02*
X135602500Y-94518000D01*
X134952500Y-97638000D02*
X134302500Y-97638000D01*
X134952500Y-97638000D02*
X136627500Y-97638000D01*
%TO.C,J2*%
X130540000Y-86150000D02*
X130540000Y-87400000D01*
X130830000Y-86440000D02*
X130830000Y-92410000D01*
X130830000Y-92410000D02*
X138450000Y-92410000D01*
X130840000Y-86450000D02*
X130840000Y-87200000D01*
X130840000Y-87200000D02*
X132640000Y-87200000D01*
X130840000Y-88700000D02*
X131590000Y-88700000D01*
X131590000Y-88700000D02*
X131590000Y-91650000D01*
X131590000Y-91650000D02*
X134640000Y-91650000D01*
X131790000Y-86150000D02*
X130540000Y-86150000D01*
X132640000Y-86450000D02*
X130840000Y-86450000D01*
X132640000Y-87200000D02*
X132640000Y-86450000D01*
X134140000Y-86450000D02*
X134140000Y-87200000D01*
X134140000Y-87200000D02*
X135140000Y-87200000D01*
X135140000Y-86450000D02*
X134140000Y-86450000D01*
X135140000Y-87200000D02*
X135140000Y-86450000D01*
X136640000Y-86450000D02*
X136640000Y-87200000D01*
X136640000Y-87200000D02*
X138440000Y-87200000D01*
X137690000Y-88700000D02*
X137690000Y-91650000D01*
X137690000Y-91650000D02*
X134640000Y-91650000D01*
X138440000Y-86450000D02*
X136640000Y-86450000D01*
X138440000Y-87200000D02*
X138440000Y-86450000D01*
X138440000Y-88700000D02*
X137690000Y-88700000D01*
X138450000Y-86440000D02*
X130830000Y-86440000D01*
X138450000Y-92410000D02*
X138450000Y-86440000D01*
%TO.C,R3*%
X139050000Y-95092000D02*
X142890000Y-95092000D01*
X139050000Y-96932000D02*
X142890000Y-96932000D01*
%TO.C,J1*%
X142010000Y-86150000D02*
X142010000Y-87400000D01*
X142300000Y-86440000D02*
X142300000Y-92410000D01*
X142300000Y-92410000D02*
X152420000Y-92410000D01*
X142310000Y-86450000D02*
X142310000Y-87200000D01*
X142310000Y-87200000D02*
X144110000Y-87200000D01*
X142310000Y-88700000D02*
X143060000Y-88700000D01*
X143060000Y-88700000D02*
X143060000Y-90040000D01*
X143260000Y-86150000D02*
X142010000Y-86150000D01*
X144110000Y-86450000D02*
X142310000Y-86450000D01*
X144110000Y-87200000D02*
X144110000Y-86450000D01*
X145610000Y-86450000D02*
X145610000Y-87200000D01*
X145610000Y-87200000D02*
X149110000Y-87200000D01*
X147360000Y-91650000D02*
X144120000Y-91650000D01*
X149110000Y-86450000D02*
X145610000Y-86450000D01*
X149110000Y-87200000D02*
X149110000Y-86450000D01*
X150610000Y-86450000D02*
X150610000Y-87200000D01*
X150610000Y-87200000D02*
X152410000Y-87200000D01*
X151660000Y-88700000D02*
X151660000Y-91650000D01*
X151660000Y-91650000D02*
X147360000Y-91650000D01*
X152410000Y-86450000D02*
X150610000Y-86450000D01*
X152410000Y-87200000D02*
X152410000Y-86450000D01*
X152410000Y-88700000D02*
X151660000Y-88700000D01*
X152420000Y-86440000D02*
X142300000Y-86440000D01*
X152420000Y-92410000D02*
X152420000Y-86440000D01*
%TO.C,D2*%
X149134000Y-94932000D02*
X149134000Y-94776000D01*
X149134000Y-97248000D02*
X149134000Y-97092000D01*
X145901666Y-94933392D02*
G75*
G02*
X149133999Y-94776485I1672334J-1078608D01*
G01*
X146532871Y-94932164D02*
G75*
G02*
X148614960Y-94932001I1041129J-1079836D01*
G01*
X148614960Y-97091999D02*
G75*
G02*
X146532871Y-97091836I-1040960J1079999D01*
G01*
X149133999Y-97247515D02*
G75*
G02*
X145901666Y-97090608I-1559999J1235515D01*
G01*
%TD*%
M02*
