%TF.GenerationSoftware,KiCad,Pcbnew,8.0.1*%
%TF.CreationDate,2024-05-01T10:03:25+09:00*%
%TF.ProjectId,LaserControlConnector,4c617365-7243-46f6-9e74-726f6c436f6e,rev?*%
%TF.SameCoordinates,Original*%
%TF.FileFunction,Drillmap*%
%TF.FilePolarity,Positive*%
%FSLAX45Y45*%
G04 Gerber Fmt 4.5, Leading zero omitted, Abs format (unit mm)*
G04 Created by KiCad (PCBNEW 8.0.1) date 2024-05-01 10:03:25*
%MOMM*%
%LPD*%
G01*
G04 APERTURE LIST*
%ADD10C,0.100000*%
%ADD11C,0.200000*%
%ADD12C,0.120000*%
G04 APERTURE END LIST*
D10*
X12801600Y-8089900D02*
X12801600Y-9829800D01*
X13106400Y-7785100D02*
X13106400Y-7010400D01*
X14173200Y-6959600D02*
X14274800Y-6959600D01*
X13614400Y-7010400D02*
G75*
G02*
X13665200Y-6959600I50800J0D01*
G01*
X13258800Y-6959600D02*
G75*
G02*
X13309600Y-7010400I0J-50800D01*
G01*
X13665200Y-6959600D02*
X13766800Y-6959600D01*
X12954000Y-9982200D02*
G75*
G02*
X12801600Y-9829800I0J152400D01*
G01*
X13106400Y-7785100D02*
G75*
G02*
X12954000Y-7937500I-151970J-430D01*
G01*
X13614400Y-7785100D02*
X13614400Y-7010400D01*
X13309600Y-7785100D02*
X13309600Y-7010400D01*
X14122400Y-7010400D02*
G75*
G02*
X14173200Y-6959600I50800J0D01*
G01*
X13766800Y-6959600D02*
G75*
G02*
X13817600Y-7010400I0J-50800D01*
G01*
X15494000Y-7937500D02*
G75*
G02*
X15341600Y-7785100I0J152400D01*
G01*
X15646400Y-8089900D02*
X15646400Y-9829800D01*
X15138400Y-7785100D02*
G75*
G02*
X14833600Y-7785100I-152400J0D01*
G01*
X15189200Y-6959600D02*
X15290800Y-6959600D01*
X15341600Y-7785100D02*
X15341600Y-7010400D01*
X14274800Y-6959600D02*
G75*
G02*
X14325600Y-7010400I0J-50800D01*
G01*
X14630400Y-7785100D02*
G75*
G02*
X14325600Y-7785100I-152400J0D01*
G01*
X14782800Y-6959600D02*
G75*
G02*
X14833600Y-7010400I0J-50800D01*
G01*
X13157200Y-6959600D02*
X13258800Y-6959600D01*
X14325600Y-7785100D02*
X14325600Y-7010400D01*
X13614400Y-7785100D02*
G75*
G02*
X13309600Y-7785100I-152400J0D01*
G01*
X15138400Y-7785100D02*
X15138400Y-7010400D01*
X14833600Y-7785100D02*
X14833600Y-7010400D01*
X13817600Y-7785100D02*
X13817600Y-7010400D01*
X15494000Y-7937500D02*
G75*
G02*
X15646400Y-8089900I0J-152400D01*
G01*
X15290800Y-6959600D02*
G75*
G02*
X15341600Y-7010400I0J-50800D01*
G01*
X13106400Y-7010400D02*
G75*
G02*
X13157200Y-6959600I50800J0D01*
G01*
X14122400Y-7785100D02*
G75*
G02*
X13817600Y-7785100I-152400J0D01*
G01*
X15138400Y-7010400D02*
G75*
G02*
X15189200Y-6959600I50800J0D01*
G01*
X12954000Y-9982200D02*
X15494000Y-9982200D01*
X14630400Y-7010400D02*
G75*
G02*
X14681200Y-6959600I50800J0D01*
G01*
X15646400Y-9829800D02*
G75*
G02*
X15494000Y-9982200I-152400J0D01*
G01*
X14122400Y-7785100D02*
X14122400Y-7010400D01*
X12801600Y-8089900D02*
G75*
G02*
X12954000Y-7937500I152400J0D01*
G01*
X14681200Y-6959600D02*
X14782800Y-6959600D01*
X14630400Y-7785100D02*
X14630400Y-7010400D01*
D11*
D10*
X13176250Y-8159750D02*
X13239750Y-8223250D01*
X13239750Y-8159750D02*
X13176250Y-8223250D01*
X13684250Y-8159750D02*
X13747750Y-8223250D01*
X13747750Y-8159750D02*
X13684250Y-8223250D01*
X14192250Y-8159750D02*
X14255750Y-8223250D01*
X14255750Y-8159750D02*
X14192250Y-8223250D01*
X14700250Y-8159750D02*
X14763750Y-8223250D01*
X14763750Y-8159750D02*
X14700250Y-8223250D01*
X15208250Y-8159750D02*
X15271750Y-8223250D01*
X15271750Y-8159750D02*
X15208250Y-8223250D01*
X13878000Y-9601200D02*
G75*
G02*
X13808000Y-9601200I-35000J0D01*
G01*
X13808000Y-9601200D02*
G75*
G02*
X13878000Y-9601200I35000J0D01*
G01*
X14386000Y-9601200D02*
G75*
G02*
X14316000Y-9601200I-35000J0D01*
G01*
X14316000Y-9601200D02*
G75*
G02*
X14386000Y-9601200I35000J0D01*
G01*
X14630400Y-9556200D02*
X14630400Y-9646200D01*
X14585400Y-9601200D02*
X14675400Y-9601200D01*
X14884400Y-9556200D02*
X14884400Y-9646200D01*
X14839400Y-9601200D02*
X14929400Y-9601200D01*
X14519588Y-8923588D02*
X14519588Y-8856412D01*
X14452412Y-8856412D01*
X14452412Y-8923588D01*
X14519588Y-8923588D01*
X14769588Y-8923588D02*
X14769588Y-8856412D01*
X14702412Y-8856412D01*
X14702412Y-8923588D01*
X14769588Y-8923588D01*
X15019588Y-8923588D02*
X15019588Y-8856412D01*
X14952412Y-8856412D01*
X14952412Y-8923588D01*
X15019588Y-8923588D01*
X13339000Y-8940000D02*
X13389000Y-8890000D01*
X13339000Y-8840000D01*
X13289000Y-8890000D01*
X13339000Y-8940000D01*
X13589000Y-8940000D02*
X13639000Y-8890000D01*
X13589000Y-8840000D01*
X13539000Y-8890000D01*
X13589000Y-8940000D01*
D12*
X14266000Y-9030000D02*
X14386000Y-9150000D01*
X14386000Y-9030000D02*
X14266000Y-9150000D01*
X14386000Y-9090000D02*
G75*
G02*
X14266000Y-9090000I-60000J0D01*
G01*
X14266000Y-9090000D02*
G75*
G02*
X14386000Y-9090000I60000J0D01*
G01*
D11*
X13057377Y-10298684D02*
X13057377Y-10098684D01*
X13057377Y-10098684D02*
X13104996Y-10098684D01*
X13104996Y-10098684D02*
X13133567Y-10108208D01*
X13133567Y-10108208D02*
X13152615Y-10127255D01*
X13152615Y-10127255D02*
X13162139Y-10146303D01*
X13162139Y-10146303D02*
X13171662Y-10184398D01*
X13171662Y-10184398D02*
X13171662Y-10212970D01*
X13171662Y-10212970D02*
X13162139Y-10251065D01*
X13162139Y-10251065D02*
X13152615Y-10270112D01*
X13152615Y-10270112D02*
X13133567Y-10289160D01*
X13133567Y-10289160D02*
X13104996Y-10298684D01*
X13104996Y-10298684D02*
X13057377Y-10298684D01*
X13257377Y-10298684D02*
X13257377Y-10165350D01*
X13257377Y-10203446D02*
X13266901Y-10184398D01*
X13266901Y-10184398D02*
X13276424Y-10174874D01*
X13276424Y-10174874D02*
X13295472Y-10165350D01*
X13295472Y-10165350D02*
X13314520Y-10165350D01*
X13381186Y-10298684D02*
X13381186Y-10165350D01*
X13381186Y-10098684D02*
X13371662Y-10108208D01*
X13371662Y-10108208D02*
X13381186Y-10117731D01*
X13381186Y-10117731D02*
X13390710Y-10108208D01*
X13390710Y-10108208D02*
X13381186Y-10098684D01*
X13381186Y-10098684D02*
X13381186Y-10117731D01*
X13504996Y-10298684D02*
X13485948Y-10289160D01*
X13485948Y-10289160D02*
X13476424Y-10270112D01*
X13476424Y-10270112D02*
X13476424Y-10098684D01*
X13609758Y-10298684D02*
X13590710Y-10289160D01*
X13590710Y-10289160D02*
X13581186Y-10270112D01*
X13581186Y-10270112D02*
X13581186Y-10098684D01*
X13838329Y-10298684D02*
X13838329Y-10098684D01*
X13838329Y-10098684D02*
X13904996Y-10241541D01*
X13904996Y-10241541D02*
X13971662Y-10098684D01*
X13971662Y-10098684D02*
X13971662Y-10298684D01*
X14152615Y-10298684D02*
X14152615Y-10193922D01*
X14152615Y-10193922D02*
X14143091Y-10174874D01*
X14143091Y-10174874D02*
X14124043Y-10165350D01*
X14124043Y-10165350D02*
X14085948Y-10165350D01*
X14085948Y-10165350D02*
X14066901Y-10174874D01*
X14152615Y-10289160D02*
X14133567Y-10298684D01*
X14133567Y-10298684D02*
X14085948Y-10298684D01*
X14085948Y-10298684D02*
X14066901Y-10289160D01*
X14066901Y-10289160D02*
X14057377Y-10270112D01*
X14057377Y-10270112D02*
X14057377Y-10251065D01*
X14057377Y-10251065D02*
X14066901Y-10232017D01*
X14066901Y-10232017D02*
X14085948Y-10222493D01*
X14085948Y-10222493D02*
X14133567Y-10222493D01*
X14133567Y-10222493D02*
X14152615Y-10212970D01*
X14247853Y-10165350D02*
X14247853Y-10365350D01*
X14247853Y-10174874D02*
X14266901Y-10165350D01*
X14266901Y-10165350D02*
X14304996Y-10165350D01*
X14304996Y-10165350D02*
X14324043Y-10174874D01*
X14324043Y-10174874D02*
X14333567Y-10184398D01*
X14333567Y-10184398D02*
X14343091Y-10203446D01*
X14343091Y-10203446D02*
X14343091Y-10260589D01*
X14343091Y-10260589D02*
X14333567Y-10279636D01*
X14333567Y-10279636D02*
X14324043Y-10289160D01*
X14324043Y-10289160D02*
X14304996Y-10298684D01*
X14304996Y-10298684D02*
X14266901Y-10298684D01*
X14266901Y-10298684D02*
X14247853Y-10289160D01*
X14428805Y-10279636D02*
X14438329Y-10289160D01*
X14438329Y-10289160D02*
X14428805Y-10298684D01*
X14428805Y-10298684D02*
X14419282Y-10289160D01*
X14419282Y-10289160D02*
X14428805Y-10279636D01*
X14428805Y-10279636D02*
X14428805Y-10298684D01*
X14428805Y-10174874D02*
X14438329Y-10184398D01*
X14438329Y-10184398D02*
X14428805Y-10193922D01*
X14428805Y-10193922D02*
X14419282Y-10184398D01*
X14419282Y-10184398D02*
X14428805Y-10174874D01*
X14428805Y-10174874D02*
X14428805Y-10193922D01*
D10*
X12733100Y-10595450D02*
X12796600Y-10658950D01*
X12796600Y-10595450D02*
X12733100Y-10658950D01*
D11*
X13095472Y-10518684D02*
X13114520Y-10518684D01*
X13114520Y-10518684D02*
X13133567Y-10528208D01*
X13133567Y-10528208D02*
X13143091Y-10537731D01*
X13143091Y-10537731D02*
X13152615Y-10556779D01*
X13152615Y-10556779D02*
X13162139Y-10594874D01*
X13162139Y-10594874D02*
X13162139Y-10642493D01*
X13162139Y-10642493D02*
X13152615Y-10680589D01*
X13152615Y-10680589D02*
X13143091Y-10699636D01*
X13143091Y-10699636D02*
X13133567Y-10709160D01*
X13133567Y-10709160D02*
X13114520Y-10718684D01*
X13114520Y-10718684D02*
X13095472Y-10718684D01*
X13095472Y-10718684D02*
X13076424Y-10709160D01*
X13076424Y-10709160D02*
X13066901Y-10699636D01*
X13066901Y-10699636D02*
X13057377Y-10680589D01*
X13057377Y-10680589D02*
X13047853Y-10642493D01*
X13047853Y-10642493D02*
X13047853Y-10594874D01*
X13047853Y-10594874D02*
X13057377Y-10556779D01*
X13057377Y-10556779D02*
X13066901Y-10537731D01*
X13066901Y-10537731D02*
X13076424Y-10528208D01*
X13076424Y-10528208D02*
X13095472Y-10518684D01*
X13247853Y-10699636D02*
X13257377Y-10709160D01*
X13257377Y-10709160D02*
X13247853Y-10718684D01*
X13247853Y-10718684D02*
X13238329Y-10709160D01*
X13238329Y-10709160D02*
X13247853Y-10699636D01*
X13247853Y-10699636D02*
X13247853Y-10718684D01*
X13428805Y-10518684D02*
X13390710Y-10518684D01*
X13390710Y-10518684D02*
X13371662Y-10528208D01*
X13371662Y-10528208D02*
X13362139Y-10537731D01*
X13362139Y-10537731D02*
X13343091Y-10566303D01*
X13343091Y-10566303D02*
X13333567Y-10604398D01*
X13333567Y-10604398D02*
X13333567Y-10680589D01*
X13333567Y-10680589D02*
X13343091Y-10699636D01*
X13343091Y-10699636D02*
X13352615Y-10709160D01*
X13352615Y-10709160D02*
X13371662Y-10718684D01*
X13371662Y-10718684D02*
X13409758Y-10718684D01*
X13409758Y-10718684D02*
X13428805Y-10709160D01*
X13428805Y-10709160D02*
X13438329Y-10699636D01*
X13438329Y-10699636D02*
X13447853Y-10680589D01*
X13447853Y-10680589D02*
X13447853Y-10632970D01*
X13447853Y-10632970D02*
X13438329Y-10613922D01*
X13438329Y-10613922D02*
X13428805Y-10604398D01*
X13428805Y-10604398D02*
X13409758Y-10594874D01*
X13409758Y-10594874D02*
X13371662Y-10594874D01*
X13371662Y-10594874D02*
X13352615Y-10604398D01*
X13352615Y-10604398D02*
X13343091Y-10613922D01*
X13343091Y-10613922D02*
X13333567Y-10632970D01*
X13514520Y-10518684D02*
X13638329Y-10518684D01*
X13638329Y-10518684D02*
X13571662Y-10594874D01*
X13571662Y-10594874D02*
X13600234Y-10594874D01*
X13600234Y-10594874D02*
X13619282Y-10604398D01*
X13619282Y-10604398D02*
X13628805Y-10613922D01*
X13628805Y-10613922D02*
X13638329Y-10632970D01*
X13638329Y-10632970D02*
X13638329Y-10680589D01*
X13638329Y-10680589D02*
X13628805Y-10699636D01*
X13628805Y-10699636D02*
X13619282Y-10709160D01*
X13619282Y-10709160D02*
X13600234Y-10718684D01*
X13600234Y-10718684D02*
X13543091Y-10718684D01*
X13543091Y-10718684D02*
X13524043Y-10709160D01*
X13524043Y-10709160D02*
X13514520Y-10699636D01*
X13819282Y-10518684D02*
X13724043Y-10518684D01*
X13724043Y-10518684D02*
X13714520Y-10613922D01*
X13714520Y-10613922D02*
X13724043Y-10604398D01*
X13724043Y-10604398D02*
X13743091Y-10594874D01*
X13743091Y-10594874D02*
X13790710Y-10594874D01*
X13790710Y-10594874D02*
X13809758Y-10604398D01*
X13809758Y-10604398D02*
X13819282Y-10613922D01*
X13819282Y-10613922D02*
X13828805Y-10632970D01*
X13828805Y-10632970D02*
X13828805Y-10680589D01*
X13828805Y-10680589D02*
X13819282Y-10699636D01*
X13819282Y-10699636D02*
X13809758Y-10709160D01*
X13809758Y-10709160D02*
X13790710Y-10718684D01*
X13790710Y-10718684D02*
X13743091Y-10718684D01*
X13743091Y-10718684D02*
X13724043Y-10709160D01*
X13724043Y-10709160D02*
X13714520Y-10699636D01*
X13914520Y-10718684D02*
X13914520Y-10585350D01*
X13914520Y-10604398D02*
X13924043Y-10594874D01*
X13924043Y-10594874D02*
X13943091Y-10585350D01*
X13943091Y-10585350D02*
X13971663Y-10585350D01*
X13971663Y-10585350D02*
X13990710Y-10594874D01*
X13990710Y-10594874D02*
X14000234Y-10613922D01*
X14000234Y-10613922D02*
X14000234Y-10718684D01*
X14000234Y-10613922D02*
X14009758Y-10594874D01*
X14009758Y-10594874D02*
X14028805Y-10585350D01*
X14028805Y-10585350D02*
X14057377Y-10585350D01*
X14057377Y-10585350D02*
X14076424Y-10594874D01*
X14076424Y-10594874D02*
X14085948Y-10613922D01*
X14085948Y-10613922D02*
X14085948Y-10718684D01*
X14181186Y-10718684D02*
X14181186Y-10585350D01*
X14181186Y-10604398D02*
X14190710Y-10594874D01*
X14190710Y-10594874D02*
X14209758Y-10585350D01*
X14209758Y-10585350D02*
X14238329Y-10585350D01*
X14238329Y-10585350D02*
X14257377Y-10594874D01*
X14257377Y-10594874D02*
X14266901Y-10613922D01*
X14266901Y-10613922D02*
X14266901Y-10718684D01*
X14266901Y-10613922D02*
X14276424Y-10594874D01*
X14276424Y-10594874D02*
X14295472Y-10585350D01*
X14295472Y-10585350D02*
X14324043Y-10585350D01*
X14324043Y-10585350D02*
X14343091Y-10594874D01*
X14343091Y-10594874D02*
X14352615Y-10613922D01*
X14352615Y-10613922D02*
X14352615Y-10718684D01*
X14743091Y-10509160D02*
X14571663Y-10766303D01*
X15000234Y-10518684D02*
X15019282Y-10518684D01*
X15019282Y-10518684D02*
X15038329Y-10528208D01*
X15038329Y-10528208D02*
X15047853Y-10537731D01*
X15047853Y-10537731D02*
X15057377Y-10556779D01*
X15057377Y-10556779D02*
X15066901Y-10594874D01*
X15066901Y-10594874D02*
X15066901Y-10642493D01*
X15066901Y-10642493D02*
X15057377Y-10680589D01*
X15057377Y-10680589D02*
X15047853Y-10699636D01*
X15047853Y-10699636D02*
X15038329Y-10709160D01*
X15038329Y-10709160D02*
X15019282Y-10718684D01*
X15019282Y-10718684D02*
X15000234Y-10718684D01*
X15000234Y-10718684D02*
X14981186Y-10709160D01*
X14981186Y-10709160D02*
X14971663Y-10699636D01*
X14971663Y-10699636D02*
X14962139Y-10680589D01*
X14962139Y-10680589D02*
X14952615Y-10642493D01*
X14952615Y-10642493D02*
X14952615Y-10594874D01*
X14952615Y-10594874D02*
X14962139Y-10556779D01*
X14962139Y-10556779D02*
X14971663Y-10537731D01*
X14971663Y-10537731D02*
X14981186Y-10528208D01*
X14981186Y-10528208D02*
X15000234Y-10518684D01*
X15152615Y-10699636D02*
X15162139Y-10709160D01*
X15162139Y-10709160D02*
X15152615Y-10718684D01*
X15152615Y-10718684D02*
X15143091Y-10709160D01*
X15143091Y-10709160D02*
X15152615Y-10699636D01*
X15152615Y-10699636D02*
X15152615Y-10718684D01*
X15285948Y-10518684D02*
X15304996Y-10518684D01*
X15304996Y-10518684D02*
X15324044Y-10528208D01*
X15324044Y-10528208D02*
X15333567Y-10537731D01*
X15333567Y-10537731D02*
X15343091Y-10556779D01*
X15343091Y-10556779D02*
X15352615Y-10594874D01*
X15352615Y-10594874D02*
X15352615Y-10642493D01*
X15352615Y-10642493D02*
X15343091Y-10680589D01*
X15343091Y-10680589D02*
X15333567Y-10699636D01*
X15333567Y-10699636D02*
X15324044Y-10709160D01*
X15324044Y-10709160D02*
X15304996Y-10718684D01*
X15304996Y-10718684D02*
X15285948Y-10718684D01*
X15285948Y-10718684D02*
X15266901Y-10709160D01*
X15266901Y-10709160D02*
X15257377Y-10699636D01*
X15257377Y-10699636D02*
X15247853Y-10680589D01*
X15247853Y-10680589D02*
X15238329Y-10642493D01*
X15238329Y-10642493D02*
X15238329Y-10594874D01*
X15238329Y-10594874D02*
X15247853Y-10556779D01*
X15247853Y-10556779D02*
X15257377Y-10537731D01*
X15257377Y-10537731D02*
X15266901Y-10528208D01*
X15266901Y-10528208D02*
X15285948Y-10518684D01*
X15428806Y-10537731D02*
X15438329Y-10528208D01*
X15438329Y-10528208D02*
X15457377Y-10518684D01*
X15457377Y-10518684D02*
X15504996Y-10518684D01*
X15504996Y-10518684D02*
X15524044Y-10528208D01*
X15524044Y-10528208D02*
X15533567Y-10537731D01*
X15533567Y-10537731D02*
X15543091Y-10556779D01*
X15543091Y-10556779D02*
X15543091Y-10575827D01*
X15543091Y-10575827D02*
X15533567Y-10604398D01*
X15533567Y-10604398D02*
X15419282Y-10718684D01*
X15419282Y-10718684D02*
X15543091Y-10718684D01*
X15724044Y-10518684D02*
X15628806Y-10518684D01*
X15628806Y-10518684D02*
X15619282Y-10613922D01*
X15619282Y-10613922D02*
X15628806Y-10604398D01*
X15628806Y-10604398D02*
X15647853Y-10594874D01*
X15647853Y-10594874D02*
X15695472Y-10594874D01*
X15695472Y-10594874D02*
X15714520Y-10604398D01*
X15714520Y-10604398D02*
X15724044Y-10613922D01*
X15724044Y-10613922D02*
X15733567Y-10632970D01*
X15733567Y-10632970D02*
X15733567Y-10680589D01*
X15733567Y-10680589D02*
X15724044Y-10699636D01*
X15724044Y-10699636D02*
X15714520Y-10709160D01*
X15714520Y-10709160D02*
X15695472Y-10718684D01*
X15695472Y-10718684D02*
X15647853Y-10718684D01*
X15647853Y-10718684D02*
X15628806Y-10709160D01*
X15628806Y-10709160D02*
X15619282Y-10699636D01*
X15857377Y-10518684D02*
X15876425Y-10518684D01*
X15876425Y-10518684D02*
X15895472Y-10528208D01*
X15895472Y-10528208D02*
X15904996Y-10537731D01*
X15904996Y-10537731D02*
X15914520Y-10556779D01*
X15914520Y-10556779D02*
X15924044Y-10594874D01*
X15924044Y-10594874D02*
X15924044Y-10642493D01*
X15924044Y-10642493D02*
X15914520Y-10680589D01*
X15914520Y-10680589D02*
X15904996Y-10699636D01*
X15904996Y-10699636D02*
X15895472Y-10709160D01*
X15895472Y-10709160D02*
X15876425Y-10718684D01*
X15876425Y-10718684D02*
X15857377Y-10718684D01*
X15857377Y-10718684D02*
X15838329Y-10709160D01*
X15838329Y-10709160D02*
X15828806Y-10699636D01*
X15828806Y-10699636D02*
X15819282Y-10680589D01*
X15819282Y-10680589D02*
X15809758Y-10642493D01*
X15809758Y-10642493D02*
X15809758Y-10594874D01*
X15809758Y-10594874D02*
X15819282Y-10556779D01*
X15819282Y-10556779D02*
X15828806Y-10537731D01*
X15828806Y-10537731D02*
X15838329Y-10528208D01*
X15838329Y-10528208D02*
X15857377Y-10518684D01*
X16000234Y-10518684D02*
X16000234Y-10556779D01*
X16076425Y-10518684D02*
X16076425Y-10556779D01*
X16371663Y-10794874D02*
X16362139Y-10785350D01*
X16362139Y-10785350D02*
X16343091Y-10756779D01*
X16343091Y-10756779D02*
X16333568Y-10737731D01*
X16333568Y-10737731D02*
X16324044Y-10709160D01*
X16324044Y-10709160D02*
X16314520Y-10661541D01*
X16314520Y-10661541D02*
X16314520Y-10623446D01*
X16314520Y-10623446D02*
X16324044Y-10575827D01*
X16324044Y-10575827D02*
X16333568Y-10547255D01*
X16333568Y-10547255D02*
X16343091Y-10528208D01*
X16343091Y-10528208D02*
X16362139Y-10499636D01*
X16362139Y-10499636D02*
X16371663Y-10490112D01*
X16543091Y-10518684D02*
X16447853Y-10518684D01*
X16447853Y-10518684D02*
X16438329Y-10613922D01*
X16438329Y-10613922D02*
X16447853Y-10604398D01*
X16447853Y-10604398D02*
X16466901Y-10594874D01*
X16466901Y-10594874D02*
X16514520Y-10594874D01*
X16514520Y-10594874D02*
X16533568Y-10604398D01*
X16533568Y-10604398D02*
X16543091Y-10613922D01*
X16543091Y-10613922D02*
X16552615Y-10632970D01*
X16552615Y-10632970D02*
X16552615Y-10680589D01*
X16552615Y-10680589D02*
X16543091Y-10699636D01*
X16543091Y-10699636D02*
X16533568Y-10709160D01*
X16533568Y-10709160D02*
X16514520Y-10718684D01*
X16514520Y-10718684D02*
X16466901Y-10718684D01*
X16466901Y-10718684D02*
X16447853Y-10709160D01*
X16447853Y-10709160D02*
X16438329Y-10699636D01*
X16790711Y-10718684D02*
X16790711Y-10518684D01*
X16876425Y-10718684D02*
X16876425Y-10613922D01*
X16876425Y-10613922D02*
X16866901Y-10594874D01*
X16866901Y-10594874D02*
X16847853Y-10585350D01*
X16847853Y-10585350D02*
X16819282Y-10585350D01*
X16819282Y-10585350D02*
X16800234Y-10594874D01*
X16800234Y-10594874D02*
X16790711Y-10604398D01*
X17000234Y-10718684D02*
X16981187Y-10709160D01*
X16981187Y-10709160D02*
X16971663Y-10699636D01*
X16971663Y-10699636D02*
X16962139Y-10680589D01*
X16962139Y-10680589D02*
X16962139Y-10623446D01*
X16962139Y-10623446D02*
X16971663Y-10604398D01*
X16971663Y-10604398D02*
X16981187Y-10594874D01*
X16981187Y-10594874D02*
X17000234Y-10585350D01*
X17000234Y-10585350D02*
X17028806Y-10585350D01*
X17028806Y-10585350D02*
X17047853Y-10594874D01*
X17047853Y-10594874D02*
X17057377Y-10604398D01*
X17057377Y-10604398D02*
X17066901Y-10623446D01*
X17066901Y-10623446D02*
X17066901Y-10680589D01*
X17066901Y-10680589D02*
X17057377Y-10699636D01*
X17057377Y-10699636D02*
X17047853Y-10709160D01*
X17047853Y-10709160D02*
X17028806Y-10718684D01*
X17028806Y-10718684D02*
X17000234Y-10718684D01*
X17181187Y-10718684D02*
X17162139Y-10709160D01*
X17162139Y-10709160D02*
X17152615Y-10690112D01*
X17152615Y-10690112D02*
X17152615Y-10518684D01*
X17333568Y-10709160D02*
X17314520Y-10718684D01*
X17314520Y-10718684D02*
X17276425Y-10718684D01*
X17276425Y-10718684D02*
X17257377Y-10709160D01*
X17257377Y-10709160D02*
X17247853Y-10690112D01*
X17247853Y-10690112D02*
X17247853Y-10613922D01*
X17247853Y-10613922D02*
X17257377Y-10594874D01*
X17257377Y-10594874D02*
X17276425Y-10585350D01*
X17276425Y-10585350D02*
X17314520Y-10585350D01*
X17314520Y-10585350D02*
X17333568Y-10594874D01*
X17333568Y-10594874D02*
X17343092Y-10613922D01*
X17343092Y-10613922D02*
X17343092Y-10632970D01*
X17343092Y-10632970D02*
X17247853Y-10652017D01*
X17419282Y-10709160D02*
X17438330Y-10718684D01*
X17438330Y-10718684D02*
X17476425Y-10718684D01*
X17476425Y-10718684D02*
X17495473Y-10709160D01*
X17495473Y-10709160D02*
X17504996Y-10690112D01*
X17504996Y-10690112D02*
X17504996Y-10680589D01*
X17504996Y-10680589D02*
X17495473Y-10661541D01*
X17495473Y-10661541D02*
X17476425Y-10652017D01*
X17476425Y-10652017D02*
X17447853Y-10652017D01*
X17447853Y-10652017D02*
X17428806Y-10642493D01*
X17428806Y-10642493D02*
X17419282Y-10623446D01*
X17419282Y-10623446D02*
X17419282Y-10613922D01*
X17419282Y-10613922D02*
X17428806Y-10594874D01*
X17428806Y-10594874D02*
X17447853Y-10585350D01*
X17447853Y-10585350D02*
X17476425Y-10585350D01*
X17476425Y-10585350D02*
X17495473Y-10594874D01*
X17571663Y-10794874D02*
X17581187Y-10785350D01*
X17581187Y-10785350D02*
X17600234Y-10756779D01*
X17600234Y-10756779D02*
X17609758Y-10737731D01*
X17609758Y-10737731D02*
X17619282Y-10709160D01*
X17619282Y-10709160D02*
X17628806Y-10661541D01*
X17628806Y-10661541D02*
X17628806Y-10623446D01*
X17628806Y-10623446D02*
X17619282Y-10575827D01*
X17619282Y-10575827D02*
X17609758Y-10547255D01*
X17609758Y-10547255D02*
X17600234Y-10528208D01*
X17600234Y-10528208D02*
X17581187Y-10499636D01*
X17581187Y-10499636D02*
X17571663Y-10490112D01*
D10*
X12796600Y-10891200D02*
G75*
G02*
X12726600Y-10891200I-35000J0D01*
G01*
X12726600Y-10891200D02*
G75*
G02*
X12796600Y-10891200I35000J0D01*
G01*
D11*
X13095472Y-10782684D02*
X13114520Y-10782684D01*
X13114520Y-10782684D02*
X13133567Y-10792208D01*
X13133567Y-10792208D02*
X13143091Y-10801731D01*
X13143091Y-10801731D02*
X13152615Y-10820779D01*
X13152615Y-10820779D02*
X13162139Y-10858874D01*
X13162139Y-10858874D02*
X13162139Y-10906493D01*
X13162139Y-10906493D02*
X13152615Y-10944589D01*
X13152615Y-10944589D02*
X13143091Y-10963636D01*
X13143091Y-10963636D02*
X13133567Y-10973160D01*
X13133567Y-10973160D02*
X13114520Y-10982684D01*
X13114520Y-10982684D02*
X13095472Y-10982684D01*
X13095472Y-10982684D02*
X13076424Y-10973160D01*
X13076424Y-10973160D02*
X13066901Y-10963636D01*
X13066901Y-10963636D02*
X13057377Y-10944589D01*
X13057377Y-10944589D02*
X13047853Y-10906493D01*
X13047853Y-10906493D02*
X13047853Y-10858874D01*
X13047853Y-10858874D02*
X13057377Y-10820779D01*
X13057377Y-10820779D02*
X13066901Y-10801731D01*
X13066901Y-10801731D02*
X13076424Y-10792208D01*
X13076424Y-10792208D02*
X13095472Y-10782684D01*
X13247853Y-10963636D02*
X13257377Y-10973160D01*
X13257377Y-10973160D02*
X13247853Y-10982684D01*
X13247853Y-10982684D02*
X13238329Y-10973160D01*
X13238329Y-10973160D02*
X13247853Y-10963636D01*
X13247853Y-10963636D02*
X13247853Y-10982684D01*
X13324043Y-10782684D02*
X13457377Y-10782684D01*
X13457377Y-10782684D02*
X13371662Y-10982684D01*
X13571662Y-10782684D02*
X13590710Y-10782684D01*
X13590710Y-10782684D02*
X13609758Y-10792208D01*
X13609758Y-10792208D02*
X13619282Y-10801731D01*
X13619282Y-10801731D02*
X13628805Y-10820779D01*
X13628805Y-10820779D02*
X13638329Y-10858874D01*
X13638329Y-10858874D02*
X13638329Y-10906493D01*
X13638329Y-10906493D02*
X13628805Y-10944589D01*
X13628805Y-10944589D02*
X13619282Y-10963636D01*
X13619282Y-10963636D02*
X13609758Y-10973160D01*
X13609758Y-10973160D02*
X13590710Y-10982684D01*
X13590710Y-10982684D02*
X13571662Y-10982684D01*
X13571662Y-10982684D02*
X13552615Y-10973160D01*
X13552615Y-10973160D02*
X13543091Y-10963636D01*
X13543091Y-10963636D02*
X13533567Y-10944589D01*
X13533567Y-10944589D02*
X13524043Y-10906493D01*
X13524043Y-10906493D02*
X13524043Y-10858874D01*
X13524043Y-10858874D02*
X13533567Y-10820779D01*
X13533567Y-10820779D02*
X13543091Y-10801731D01*
X13543091Y-10801731D02*
X13552615Y-10792208D01*
X13552615Y-10792208D02*
X13571662Y-10782684D01*
X13762139Y-10782684D02*
X13781186Y-10782684D01*
X13781186Y-10782684D02*
X13800234Y-10792208D01*
X13800234Y-10792208D02*
X13809758Y-10801731D01*
X13809758Y-10801731D02*
X13819282Y-10820779D01*
X13819282Y-10820779D02*
X13828805Y-10858874D01*
X13828805Y-10858874D02*
X13828805Y-10906493D01*
X13828805Y-10906493D02*
X13819282Y-10944589D01*
X13819282Y-10944589D02*
X13809758Y-10963636D01*
X13809758Y-10963636D02*
X13800234Y-10973160D01*
X13800234Y-10973160D02*
X13781186Y-10982684D01*
X13781186Y-10982684D02*
X13762139Y-10982684D01*
X13762139Y-10982684D02*
X13743091Y-10973160D01*
X13743091Y-10973160D02*
X13733567Y-10963636D01*
X13733567Y-10963636D02*
X13724043Y-10944589D01*
X13724043Y-10944589D02*
X13714520Y-10906493D01*
X13714520Y-10906493D02*
X13714520Y-10858874D01*
X13714520Y-10858874D02*
X13724043Y-10820779D01*
X13724043Y-10820779D02*
X13733567Y-10801731D01*
X13733567Y-10801731D02*
X13743091Y-10792208D01*
X13743091Y-10792208D02*
X13762139Y-10782684D01*
X13914520Y-10982684D02*
X13914520Y-10849350D01*
X13914520Y-10868398D02*
X13924043Y-10858874D01*
X13924043Y-10858874D02*
X13943091Y-10849350D01*
X13943091Y-10849350D02*
X13971663Y-10849350D01*
X13971663Y-10849350D02*
X13990710Y-10858874D01*
X13990710Y-10858874D02*
X14000234Y-10877922D01*
X14000234Y-10877922D02*
X14000234Y-10982684D01*
X14000234Y-10877922D02*
X14009758Y-10858874D01*
X14009758Y-10858874D02*
X14028805Y-10849350D01*
X14028805Y-10849350D02*
X14057377Y-10849350D01*
X14057377Y-10849350D02*
X14076424Y-10858874D01*
X14076424Y-10858874D02*
X14085948Y-10877922D01*
X14085948Y-10877922D02*
X14085948Y-10982684D01*
X14181186Y-10982684D02*
X14181186Y-10849350D01*
X14181186Y-10868398D02*
X14190710Y-10858874D01*
X14190710Y-10858874D02*
X14209758Y-10849350D01*
X14209758Y-10849350D02*
X14238329Y-10849350D01*
X14238329Y-10849350D02*
X14257377Y-10858874D01*
X14257377Y-10858874D02*
X14266901Y-10877922D01*
X14266901Y-10877922D02*
X14266901Y-10982684D01*
X14266901Y-10877922D02*
X14276424Y-10858874D01*
X14276424Y-10858874D02*
X14295472Y-10849350D01*
X14295472Y-10849350D02*
X14324043Y-10849350D01*
X14324043Y-10849350D02*
X14343091Y-10858874D01*
X14343091Y-10858874D02*
X14352615Y-10877922D01*
X14352615Y-10877922D02*
X14352615Y-10982684D01*
X14743091Y-10773160D02*
X14571663Y-11030303D01*
X15000234Y-10782684D02*
X15019282Y-10782684D01*
X15019282Y-10782684D02*
X15038329Y-10792208D01*
X15038329Y-10792208D02*
X15047853Y-10801731D01*
X15047853Y-10801731D02*
X15057377Y-10820779D01*
X15057377Y-10820779D02*
X15066901Y-10858874D01*
X15066901Y-10858874D02*
X15066901Y-10906493D01*
X15066901Y-10906493D02*
X15057377Y-10944589D01*
X15057377Y-10944589D02*
X15047853Y-10963636D01*
X15047853Y-10963636D02*
X15038329Y-10973160D01*
X15038329Y-10973160D02*
X15019282Y-10982684D01*
X15019282Y-10982684D02*
X15000234Y-10982684D01*
X15000234Y-10982684D02*
X14981186Y-10973160D01*
X14981186Y-10973160D02*
X14971663Y-10963636D01*
X14971663Y-10963636D02*
X14962139Y-10944589D01*
X14962139Y-10944589D02*
X14952615Y-10906493D01*
X14952615Y-10906493D02*
X14952615Y-10858874D01*
X14952615Y-10858874D02*
X14962139Y-10820779D01*
X14962139Y-10820779D02*
X14971663Y-10801731D01*
X14971663Y-10801731D02*
X14981186Y-10792208D01*
X14981186Y-10792208D02*
X15000234Y-10782684D01*
X15152615Y-10963636D02*
X15162139Y-10973160D01*
X15162139Y-10973160D02*
X15152615Y-10982684D01*
X15152615Y-10982684D02*
X15143091Y-10973160D01*
X15143091Y-10973160D02*
X15152615Y-10963636D01*
X15152615Y-10963636D02*
X15152615Y-10982684D01*
X15285948Y-10782684D02*
X15304996Y-10782684D01*
X15304996Y-10782684D02*
X15324044Y-10792208D01*
X15324044Y-10792208D02*
X15333567Y-10801731D01*
X15333567Y-10801731D02*
X15343091Y-10820779D01*
X15343091Y-10820779D02*
X15352615Y-10858874D01*
X15352615Y-10858874D02*
X15352615Y-10906493D01*
X15352615Y-10906493D02*
X15343091Y-10944589D01*
X15343091Y-10944589D02*
X15333567Y-10963636D01*
X15333567Y-10963636D02*
X15324044Y-10973160D01*
X15324044Y-10973160D02*
X15304996Y-10982684D01*
X15304996Y-10982684D02*
X15285948Y-10982684D01*
X15285948Y-10982684D02*
X15266901Y-10973160D01*
X15266901Y-10973160D02*
X15257377Y-10963636D01*
X15257377Y-10963636D02*
X15247853Y-10944589D01*
X15247853Y-10944589D02*
X15238329Y-10906493D01*
X15238329Y-10906493D02*
X15238329Y-10858874D01*
X15238329Y-10858874D02*
X15247853Y-10820779D01*
X15247853Y-10820779D02*
X15257377Y-10801731D01*
X15257377Y-10801731D02*
X15266901Y-10792208D01*
X15266901Y-10792208D02*
X15285948Y-10782684D01*
X15428806Y-10801731D02*
X15438329Y-10792208D01*
X15438329Y-10792208D02*
X15457377Y-10782684D01*
X15457377Y-10782684D02*
X15504996Y-10782684D01*
X15504996Y-10782684D02*
X15524044Y-10792208D01*
X15524044Y-10792208D02*
X15533567Y-10801731D01*
X15533567Y-10801731D02*
X15543091Y-10820779D01*
X15543091Y-10820779D02*
X15543091Y-10839827D01*
X15543091Y-10839827D02*
X15533567Y-10868398D01*
X15533567Y-10868398D02*
X15419282Y-10982684D01*
X15419282Y-10982684D02*
X15543091Y-10982684D01*
X15609758Y-10782684D02*
X15743091Y-10782684D01*
X15743091Y-10782684D02*
X15657377Y-10982684D01*
X15904996Y-10782684D02*
X15866901Y-10782684D01*
X15866901Y-10782684D02*
X15847853Y-10792208D01*
X15847853Y-10792208D02*
X15838329Y-10801731D01*
X15838329Y-10801731D02*
X15819282Y-10830303D01*
X15819282Y-10830303D02*
X15809758Y-10868398D01*
X15809758Y-10868398D02*
X15809758Y-10944589D01*
X15809758Y-10944589D02*
X15819282Y-10963636D01*
X15819282Y-10963636D02*
X15828806Y-10973160D01*
X15828806Y-10973160D02*
X15847853Y-10982684D01*
X15847853Y-10982684D02*
X15885948Y-10982684D01*
X15885948Y-10982684D02*
X15904996Y-10973160D01*
X15904996Y-10973160D02*
X15914520Y-10963636D01*
X15914520Y-10963636D02*
X15924044Y-10944589D01*
X15924044Y-10944589D02*
X15924044Y-10896970D01*
X15924044Y-10896970D02*
X15914520Y-10877922D01*
X15914520Y-10877922D02*
X15904996Y-10868398D01*
X15904996Y-10868398D02*
X15885948Y-10858874D01*
X15885948Y-10858874D02*
X15847853Y-10858874D01*
X15847853Y-10858874D02*
X15828806Y-10868398D01*
X15828806Y-10868398D02*
X15819282Y-10877922D01*
X15819282Y-10877922D02*
X15809758Y-10896970D01*
X16000234Y-10782684D02*
X16000234Y-10820779D01*
X16076425Y-10782684D02*
X16076425Y-10820779D01*
X16371663Y-11058874D02*
X16362139Y-11049350D01*
X16362139Y-11049350D02*
X16343091Y-11020779D01*
X16343091Y-11020779D02*
X16333568Y-11001731D01*
X16333568Y-11001731D02*
X16324044Y-10973160D01*
X16324044Y-10973160D02*
X16314520Y-10925541D01*
X16314520Y-10925541D02*
X16314520Y-10887446D01*
X16314520Y-10887446D02*
X16324044Y-10839827D01*
X16324044Y-10839827D02*
X16333568Y-10811255D01*
X16333568Y-10811255D02*
X16343091Y-10792208D01*
X16343091Y-10792208D02*
X16362139Y-10763636D01*
X16362139Y-10763636D02*
X16371663Y-10754112D01*
X16438329Y-10801731D02*
X16447853Y-10792208D01*
X16447853Y-10792208D02*
X16466901Y-10782684D01*
X16466901Y-10782684D02*
X16514520Y-10782684D01*
X16514520Y-10782684D02*
X16533568Y-10792208D01*
X16533568Y-10792208D02*
X16543091Y-10801731D01*
X16543091Y-10801731D02*
X16552615Y-10820779D01*
X16552615Y-10820779D02*
X16552615Y-10839827D01*
X16552615Y-10839827D02*
X16543091Y-10868398D01*
X16543091Y-10868398D02*
X16428806Y-10982684D01*
X16428806Y-10982684D02*
X16552615Y-10982684D01*
X16790711Y-10982684D02*
X16790711Y-10782684D01*
X16876425Y-10982684D02*
X16876425Y-10877922D01*
X16876425Y-10877922D02*
X16866901Y-10858874D01*
X16866901Y-10858874D02*
X16847853Y-10849350D01*
X16847853Y-10849350D02*
X16819282Y-10849350D01*
X16819282Y-10849350D02*
X16800234Y-10858874D01*
X16800234Y-10858874D02*
X16790711Y-10868398D01*
X17000234Y-10982684D02*
X16981187Y-10973160D01*
X16981187Y-10973160D02*
X16971663Y-10963636D01*
X16971663Y-10963636D02*
X16962139Y-10944589D01*
X16962139Y-10944589D02*
X16962139Y-10887446D01*
X16962139Y-10887446D02*
X16971663Y-10868398D01*
X16971663Y-10868398D02*
X16981187Y-10858874D01*
X16981187Y-10858874D02*
X17000234Y-10849350D01*
X17000234Y-10849350D02*
X17028806Y-10849350D01*
X17028806Y-10849350D02*
X17047853Y-10858874D01*
X17047853Y-10858874D02*
X17057377Y-10868398D01*
X17057377Y-10868398D02*
X17066901Y-10887446D01*
X17066901Y-10887446D02*
X17066901Y-10944589D01*
X17066901Y-10944589D02*
X17057377Y-10963636D01*
X17057377Y-10963636D02*
X17047853Y-10973160D01*
X17047853Y-10973160D02*
X17028806Y-10982684D01*
X17028806Y-10982684D02*
X17000234Y-10982684D01*
X17181187Y-10982684D02*
X17162139Y-10973160D01*
X17162139Y-10973160D02*
X17152615Y-10954112D01*
X17152615Y-10954112D02*
X17152615Y-10782684D01*
X17333568Y-10973160D02*
X17314520Y-10982684D01*
X17314520Y-10982684D02*
X17276425Y-10982684D01*
X17276425Y-10982684D02*
X17257377Y-10973160D01*
X17257377Y-10973160D02*
X17247853Y-10954112D01*
X17247853Y-10954112D02*
X17247853Y-10877922D01*
X17247853Y-10877922D02*
X17257377Y-10858874D01*
X17257377Y-10858874D02*
X17276425Y-10849350D01*
X17276425Y-10849350D02*
X17314520Y-10849350D01*
X17314520Y-10849350D02*
X17333568Y-10858874D01*
X17333568Y-10858874D02*
X17343092Y-10877922D01*
X17343092Y-10877922D02*
X17343092Y-10896970D01*
X17343092Y-10896970D02*
X17247853Y-10916017D01*
X17419282Y-10973160D02*
X17438330Y-10982684D01*
X17438330Y-10982684D02*
X17476425Y-10982684D01*
X17476425Y-10982684D02*
X17495473Y-10973160D01*
X17495473Y-10973160D02*
X17504996Y-10954112D01*
X17504996Y-10954112D02*
X17504996Y-10944589D01*
X17504996Y-10944589D02*
X17495473Y-10925541D01*
X17495473Y-10925541D02*
X17476425Y-10916017D01*
X17476425Y-10916017D02*
X17447853Y-10916017D01*
X17447853Y-10916017D02*
X17428806Y-10906493D01*
X17428806Y-10906493D02*
X17419282Y-10887446D01*
X17419282Y-10887446D02*
X17419282Y-10877922D01*
X17419282Y-10877922D02*
X17428806Y-10858874D01*
X17428806Y-10858874D02*
X17447853Y-10849350D01*
X17447853Y-10849350D02*
X17476425Y-10849350D01*
X17476425Y-10849350D02*
X17495473Y-10858874D01*
X17571663Y-11058874D02*
X17581187Y-11049350D01*
X17581187Y-11049350D02*
X17600234Y-11020779D01*
X17600234Y-11020779D02*
X17609758Y-11001731D01*
X17609758Y-11001731D02*
X17619282Y-10973160D01*
X17619282Y-10973160D02*
X17628806Y-10925541D01*
X17628806Y-10925541D02*
X17628806Y-10887446D01*
X17628806Y-10887446D02*
X17619282Y-10839827D01*
X17619282Y-10839827D02*
X17609758Y-10811255D01*
X17609758Y-10811255D02*
X17600234Y-10792208D01*
X17600234Y-10792208D02*
X17581187Y-10763636D01*
X17581187Y-10763636D02*
X17571663Y-10754112D01*
D10*
X12751600Y-11110200D02*
X12751600Y-11200200D01*
X12706600Y-11155200D02*
X12796600Y-11155200D01*
D11*
X13095472Y-11046684D02*
X13114520Y-11046684D01*
X13114520Y-11046684D02*
X13133567Y-11056208D01*
X13133567Y-11056208D02*
X13143091Y-11065731D01*
X13143091Y-11065731D02*
X13152615Y-11084779D01*
X13152615Y-11084779D02*
X13162139Y-11122874D01*
X13162139Y-11122874D02*
X13162139Y-11170493D01*
X13162139Y-11170493D02*
X13152615Y-11208588D01*
X13152615Y-11208588D02*
X13143091Y-11227636D01*
X13143091Y-11227636D02*
X13133567Y-11237160D01*
X13133567Y-11237160D02*
X13114520Y-11246684D01*
X13114520Y-11246684D02*
X13095472Y-11246684D01*
X13095472Y-11246684D02*
X13076424Y-11237160D01*
X13076424Y-11237160D02*
X13066901Y-11227636D01*
X13066901Y-11227636D02*
X13057377Y-11208588D01*
X13057377Y-11208588D02*
X13047853Y-11170493D01*
X13047853Y-11170493D02*
X13047853Y-11122874D01*
X13047853Y-11122874D02*
X13057377Y-11084779D01*
X13057377Y-11084779D02*
X13066901Y-11065731D01*
X13066901Y-11065731D02*
X13076424Y-11056208D01*
X13076424Y-11056208D02*
X13095472Y-11046684D01*
X13247853Y-11227636D02*
X13257377Y-11237160D01*
X13257377Y-11237160D02*
X13247853Y-11246684D01*
X13247853Y-11246684D02*
X13238329Y-11237160D01*
X13238329Y-11237160D02*
X13247853Y-11227636D01*
X13247853Y-11227636D02*
X13247853Y-11246684D01*
X13352615Y-11246684D02*
X13390710Y-11246684D01*
X13390710Y-11246684D02*
X13409758Y-11237160D01*
X13409758Y-11237160D02*
X13419282Y-11227636D01*
X13419282Y-11227636D02*
X13438329Y-11199065D01*
X13438329Y-11199065D02*
X13447853Y-11160970D01*
X13447853Y-11160970D02*
X13447853Y-11084779D01*
X13447853Y-11084779D02*
X13438329Y-11065731D01*
X13438329Y-11065731D02*
X13428805Y-11056208D01*
X13428805Y-11056208D02*
X13409758Y-11046684D01*
X13409758Y-11046684D02*
X13371662Y-11046684D01*
X13371662Y-11046684D02*
X13352615Y-11056208D01*
X13352615Y-11056208D02*
X13343091Y-11065731D01*
X13343091Y-11065731D02*
X13333567Y-11084779D01*
X13333567Y-11084779D02*
X13333567Y-11132398D01*
X13333567Y-11132398D02*
X13343091Y-11151446D01*
X13343091Y-11151446D02*
X13352615Y-11160970D01*
X13352615Y-11160970D02*
X13371662Y-11170493D01*
X13371662Y-11170493D02*
X13409758Y-11170493D01*
X13409758Y-11170493D02*
X13428805Y-11160970D01*
X13428805Y-11160970D02*
X13438329Y-11151446D01*
X13438329Y-11151446D02*
X13447853Y-11132398D01*
X13571662Y-11046684D02*
X13590710Y-11046684D01*
X13590710Y-11046684D02*
X13609758Y-11056208D01*
X13609758Y-11056208D02*
X13619282Y-11065731D01*
X13619282Y-11065731D02*
X13628805Y-11084779D01*
X13628805Y-11084779D02*
X13638329Y-11122874D01*
X13638329Y-11122874D02*
X13638329Y-11170493D01*
X13638329Y-11170493D02*
X13628805Y-11208588D01*
X13628805Y-11208588D02*
X13619282Y-11227636D01*
X13619282Y-11227636D02*
X13609758Y-11237160D01*
X13609758Y-11237160D02*
X13590710Y-11246684D01*
X13590710Y-11246684D02*
X13571662Y-11246684D01*
X13571662Y-11246684D02*
X13552615Y-11237160D01*
X13552615Y-11237160D02*
X13543091Y-11227636D01*
X13543091Y-11227636D02*
X13533567Y-11208588D01*
X13533567Y-11208588D02*
X13524043Y-11170493D01*
X13524043Y-11170493D02*
X13524043Y-11122874D01*
X13524043Y-11122874D02*
X13533567Y-11084779D01*
X13533567Y-11084779D02*
X13543091Y-11065731D01*
X13543091Y-11065731D02*
X13552615Y-11056208D01*
X13552615Y-11056208D02*
X13571662Y-11046684D01*
X13762139Y-11046684D02*
X13781186Y-11046684D01*
X13781186Y-11046684D02*
X13800234Y-11056208D01*
X13800234Y-11056208D02*
X13809758Y-11065731D01*
X13809758Y-11065731D02*
X13819282Y-11084779D01*
X13819282Y-11084779D02*
X13828805Y-11122874D01*
X13828805Y-11122874D02*
X13828805Y-11170493D01*
X13828805Y-11170493D02*
X13819282Y-11208588D01*
X13819282Y-11208588D02*
X13809758Y-11227636D01*
X13809758Y-11227636D02*
X13800234Y-11237160D01*
X13800234Y-11237160D02*
X13781186Y-11246684D01*
X13781186Y-11246684D02*
X13762139Y-11246684D01*
X13762139Y-11246684D02*
X13743091Y-11237160D01*
X13743091Y-11237160D02*
X13733567Y-11227636D01*
X13733567Y-11227636D02*
X13724043Y-11208588D01*
X13724043Y-11208588D02*
X13714520Y-11170493D01*
X13714520Y-11170493D02*
X13714520Y-11122874D01*
X13714520Y-11122874D02*
X13724043Y-11084779D01*
X13724043Y-11084779D02*
X13733567Y-11065731D01*
X13733567Y-11065731D02*
X13743091Y-11056208D01*
X13743091Y-11056208D02*
X13762139Y-11046684D01*
X13914520Y-11246684D02*
X13914520Y-11113350D01*
X13914520Y-11132398D02*
X13924043Y-11122874D01*
X13924043Y-11122874D02*
X13943091Y-11113350D01*
X13943091Y-11113350D02*
X13971663Y-11113350D01*
X13971663Y-11113350D02*
X13990710Y-11122874D01*
X13990710Y-11122874D02*
X14000234Y-11141922D01*
X14000234Y-11141922D02*
X14000234Y-11246684D01*
X14000234Y-11141922D02*
X14009758Y-11122874D01*
X14009758Y-11122874D02*
X14028805Y-11113350D01*
X14028805Y-11113350D02*
X14057377Y-11113350D01*
X14057377Y-11113350D02*
X14076424Y-11122874D01*
X14076424Y-11122874D02*
X14085948Y-11141922D01*
X14085948Y-11141922D02*
X14085948Y-11246684D01*
X14181186Y-11246684D02*
X14181186Y-11113350D01*
X14181186Y-11132398D02*
X14190710Y-11122874D01*
X14190710Y-11122874D02*
X14209758Y-11113350D01*
X14209758Y-11113350D02*
X14238329Y-11113350D01*
X14238329Y-11113350D02*
X14257377Y-11122874D01*
X14257377Y-11122874D02*
X14266901Y-11141922D01*
X14266901Y-11141922D02*
X14266901Y-11246684D01*
X14266901Y-11141922D02*
X14276424Y-11122874D01*
X14276424Y-11122874D02*
X14295472Y-11113350D01*
X14295472Y-11113350D02*
X14324043Y-11113350D01*
X14324043Y-11113350D02*
X14343091Y-11122874D01*
X14343091Y-11122874D02*
X14352615Y-11141922D01*
X14352615Y-11141922D02*
X14352615Y-11246684D01*
X14743091Y-11037160D02*
X14571663Y-11294303D01*
X15000234Y-11046684D02*
X15019282Y-11046684D01*
X15019282Y-11046684D02*
X15038329Y-11056208D01*
X15038329Y-11056208D02*
X15047853Y-11065731D01*
X15047853Y-11065731D02*
X15057377Y-11084779D01*
X15057377Y-11084779D02*
X15066901Y-11122874D01*
X15066901Y-11122874D02*
X15066901Y-11170493D01*
X15066901Y-11170493D02*
X15057377Y-11208588D01*
X15057377Y-11208588D02*
X15047853Y-11227636D01*
X15047853Y-11227636D02*
X15038329Y-11237160D01*
X15038329Y-11237160D02*
X15019282Y-11246684D01*
X15019282Y-11246684D02*
X15000234Y-11246684D01*
X15000234Y-11246684D02*
X14981186Y-11237160D01*
X14981186Y-11237160D02*
X14971663Y-11227636D01*
X14971663Y-11227636D02*
X14962139Y-11208588D01*
X14962139Y-11208588D02*
X14952615Y-11170493D01*
X14952615Y-11170493D02*
X14952615Y-11122874D01*
X14952615Y-11122874D02*
X14962139Y-11084779D01*
X14962139Y-11084779D02*
X14971663Y-11065731D01*
X14971663Y-11065731D02*
X14981186Y-11056208D01*
X14981186Y-11056208D02*
X15000234Y-11046684D01*
X15152615Y-11227636D02*
X15162139Y-11237160D01*
X15162139Y-11237160D02*
X15152615Y-11246684D01*
X15152615Y-11246684D02*
X15143091Y-11237160D01*
X15143091Y-11237160D02*
X15152615Y-11227636D01*
X15152615Y-11227636D02*
X15152615Y-11246684D01*
X15285948Y-11046684D02*
X15304996Y-11046684D01*
X15304996Y-11046684D02*
X15324044Y-11056208D01*
X15324044Y-11056208D02*
X15333567Y-11065731D01*
X15333567Y-11065731D02*
X15343091Y-11084779D01*
X15343091Y-11084779D02*
X15352615Y-11122874D01*
X15352615Y-11122874D02*
X15352615Y-11170493D01*
X15352615Y-11170493D02*
X15343091Y-11208588D01*
X15343091Y-11208588D02*
X15333567Y-11227636D01*
X15333567Y-11227636D02*
X15324044Y-11237160D01*
X15324044Y-11237160D02*
X15304996Y-11246684D01*
X15304996Y-11246684D02*
X15285948Y-11246684D01*
X15285948Y-11246684D02*
X15266901Y-11237160D01*
X15266901Y-11237160D02*
X15257377Y-11227636D01*
X15257377Y-11227636D02*
X15247853Y-11208588D01*
X15247853Y-11208588D02*
X15238329Y-11170493D01*
X15238329Y-11170493D02*
X15238329Y-11122874D01*
X15238329Y-11122874D02*
X15247853Y-11084779D01*
X15247853Y-11084779D02*
X15257377Y-11065731D01*
X15257377Y-11065731D02*
X15266901Y-11056208D01*
X15266901Y-11056208D02*
X15285948Y-11046684D01*
X15419282Y-11046684D02*
X15543091Y-11046684D01*
X15543091Y-11046684D02*
X15476425Y-11122874D01*
X15476425Y-11122874D02*
X15504996Y-11122874D01*
X15504996Y-11122874D02*
X15524044Y-11132398D01*
X15524044Y-11132398D02*
X15533567Y-11141922D01*
X15533567Y-11141922D02*
X15543091Y-11160970D01*
X15543091Y-11160970D02*
X15543091Y-11208588D01*
X15543091Y-11208588D02*
X15533567Y-11227636D01*
X15533567Y-11227636D02*
X15524044Y-11237160D01*
X15524044Y-11237160D02*
X15504996Y-11246684D01*
X15504996Y-11246684D02*
X15447853Y-11246684D01*
X15447853Y-11246684D02*
X15428806Y-11237160D01*
X15428806Y-11237160D02*
X15419282Y-11227636D01*
X15724044Y-11046684D02*
X15628806Y-11046684D01*
X15628806Y-11046684D02*
X15619282Y-11141922D01*
X15619282Y-11141922D02*
X15628806Y-11132398D01*
X15628806Y-11132398D02*
X15647853Y-11122874D01*
X15647853Y-11122874D02*
X15695472Y-11122874D01*
X15695472Y-11122874D02*
X15714520Y-11132398D01*
X15714520Y-11132398D02*
X15724044Y-11141922D01*
X15724044Y-11141922D02*
X15733567Y-11160970D01*
X15733567Y-11160970D02*
X15733567Y-11208588D01*
X15733567Y-11208588D02*
X15724044Y-11227636D01*
X15724044Y-11227636D02*
X15714520Y-11237160D01*
X15714520Y-11237160D02*
X15695472Y-11246684D01*
X15695472Y-11246684D02*
X15647853Y-11246684D01*
X15647853Y-11246684D02*
X15628806Y-11237160D01*
X15628806Y-11237160D02*
X15619282Y-11227636D01*
X15904996Y-11113350D02*
X15904996Y-11246684D01*
X15857377Y-11037160D02*
X15809758Y-11180017D01*
X15809758Y-11180017D02*
X15933567Y-11180017D01*
X16000234Y-11046684D02*
X16000234Y-11084779D01*
X16076425Y-11046684D02*
X16076425Y-11084779D01*
X16371663Y-11322874D02*
X16362139Y-11313350D01*
X16362139Y-11313350D02*
X16343091Y-11284779D01*
X16343091Y-11284779D02*
X16333568Y-11265731D01*
X16333568Y-11265731D02*
X16324044Y-11237160D01*
X16324044Y-11237160D02*
X16314520Y-11189541D01*
X16314520Y-11189541D02*
X16314520Y-11151446D01*
X16314520Y-11151446D02*
X16324044Y-11103827D01*
X16324044Y-11103827D02*
X16333568Y-11075255D01*
X16333568Y-11075255D02*
X16343091Y-11056208D01*
X16343091Y-11056208D02*
X16362139Y-11027636D01*
X16362139Y-11027636D02*
X16371663Y-11018112D01*
X16438329Y-11065731D02*
X16447853Y-11056208D01*
X16447853Y-11056208D02*
X16466901Y-11046684D01*
X16466901Y-11046684D02*
X16514520Y-11046684D01*
X16514520Y-11046684D02*
X16533568Y-11056208D01*
X16533568Y-11056208D02*
X16543091Y-11065731D01*
X16543091Y-11065731D02*
X16552615Y-11084779D01*
X16552615Y-11084779D02*
X16552615Y-11103827D01*
X16552615Y-11103827D02*
X16543091Y-11132398D01*
X16543091Y-11132398D02*
X16428806Y-11246684D01*
X16428806Y-11246684D02*
X16552615Y-11246684D01*
X16790711Y-11246684D02*
X16790711Y-11046684D01*
X16876425Y-11246684D02*
X16876425Y-11141922D01*
X16876425Y-11141922D02*
X16866901Y-11122874D01*
X16866901Y-11122874D02*
X16847853Y-11113350D01*
X16847853Y-11113350D02*
X16819282Y-11113350D01*
X16819282Y-11113350D02*
X16800234Y-11122874D01*
X16800234Y-11122874D02*
X16790711Y-11132398D01*
X17000234Y-11246684D02*
X16981187Y-11237160D01*
X16981187Y-11237160D02*
X16971663Y-11227636D01*
X16971663Y-11227636D02*
X16962139Y-11208588D01*
X16962139Y-11208588D02*
X16962139Y-11151446D01*
X16962139Y-11151446D02*
X16971663Y-11132398D01*
X16971663Y-11132398D02*
X16981187Y-11122874D01*
X16981187Y-11122874D02*
X17000234Y-11113350D01*
X17000234Y-11113350D02*
X17028806Y-11113350D01*
X17028806Y-11113350D02*
X17047853Y-11122874D01*
X17047853Y-11122874D02*
X17057377Y-11132398D01*
X17057377Y-11132398D02*
X17066901Y-11151446D01*
X17066901Y-11151446D02*
X17066901Y-11208588D01*
X17066901Y-11208588D02*
X17057377Y-11227636D01*
X17057377Y-11227636D02*
X17047853Y-11237160D01*
X17047853Y-11237160D02*
X17028806Y-11246684D01*
X17028806Y-11246684D02*
X17000234Y-11246684D01*
X17181187Y-11246684D02*
X17162139Y-11237160D01*
X17162139Y-11237160D02*
X17152615Y-11218112D01*
X17152615Y-11218112D02*
X17152615Y-11046684D01*
X17333568Y-11237160D02*
X17314520Y-11246684D01*
X17314520Y-11246684D02*
X17276425Y-11246684D01*
X17276425Y-11246684D02*
X17257377Y-11237160D01*
X17257377Y-11237160D02*
X17247853Y-11218112D01*
X17247853Y-11218112D02*
X17247853Y-11141922D01*
X17247853Y-11141922D02*
X17257377Y-11122874D01*
X17257377Y-11122874D02*
X17276425Y-11113350D01*
X17276425Y-11113350D02*
X17314520Y-11113350D01*
X17314520Y-11113350D02*
X17333568Y-11122874D01*
X17333568Y-11122874D02*
X17343092Y-11141922D01*
X17343092Y-11141922D02*
X17343092Y-11160970D01*
X17343092Y-11160970D02*
X17247853Y-11180017D01*
X17419282Y-11237160D02*
X17438330Y-11246684D01*
X17438330Y-11246684D02*
X17476425Y-11246684D01*
X17476425Y-11246684D02*
X17495473Y-11237160D01*
X17495473Y-11237160D02*
X17504996Y-11218112D01*
X17504996Y-11218112D02*
X17504996Y-11208588D01*
X17504996Y-11208588D02*
X17495473Y-11189541D01*
X17495473Y-11189541D02*
X17476425Y-11180017D01*
X17476425Y-11180017D02*
X17447853Y-11180017D01*
X17447853Y-11180017D02*
X17428806Y-11170493D01*
X17428806Y-11170493D02*
X17419282Y-11151446D01*
X17419282Y-11151446D02*
X17419282Y-11141922D01*
X17419282Y-11141922D02*
X17428806Y-11122874D01*
X17428806Y-11122874D02*
X17447853Y-11113350D01*
X17447853Y-11113350D02*
X17476425Y-11113350D01*
X17476425Y-11113350D02*
X17495473Y-11122874D01*
X17571663Y-11322874D02*
X17581187Y-11313350D01*
X17581187Y-11313350D02*
X17600234Y-11284779D01*
X17600234Y-11284779D02*
X17609758Y-11265731D01*
X17609758Y-11265731D02*
X17619282Y-11237160D01*
X17619282Y-11237160D02*
X17628806Y-11189541D01*
X17628806Y-11189541D02*
X17628806Y-11151446D01*
X17628806Y-11151446D02*
X17619282Y-11103827D01*
X17619282Y-11103827D02*
X17609758Y-11075255D01*
X17609758Y-11075255D02*
X17600234Y-11056208D01*
X17600234Y-11056208D02*
X17581187Y-11027636D01*
X17581187Y-11027636D02*
X17571663Y-11018112D01*
D10*
X12782688Y-11452788D02*
X12782688Y-11385612D01*
X12715512Y-11385612D01*
X12715512Y-11452788D01*
X12782688Y-11452788D01*
D11*
X13095472Y-11310684D02*
X13114520Y-11310684D01*
X13114520Y-11310684D02*
X13133567Y-11320208D01*
X13133567Y-11320208D02*
X13143091Y-11329731D01*
X13143091Y-11329731D02*
X13152615Y-11348779D01*
X13152615Y-11348779D02*
X13162139Y-11386874D01*
X13162139Y-11386874D02*
X13162139Y-11434493D01*
X13162139Y-11434493D02*
X13152615Y-11472588D01*
X13152615Y-11472588D02*
X13143091Y-11491636D01*
X13143091Y-11491636D02*
X13133567Y-11501160D01*
X13133567Y-11501160D02*
X13114520Y-11510684D01*
X13114520Y-11510684D02*
X13095472Y-11510684D01*
X13095472Y-11510684D02*
X13076424Y-11501160D01*
X13076424Y-11501160D02*
X13066901Y-11491636D01*
X13066901Y-11491636D02*
X13057377Y-11472588D01*
X13057377Y-11472588D02*
X13047853Y-11434493D01*
X13047853Y-11434493D02*
X13047853Y-11386874D01*
X13047853Y-11386874D02*
X13057377Y-11348779D01*
X13057377Y-11348779D02*
X13066901Y-11329731D01*
X13066901Y-11329731D02*
X13076424Y-11320208D01*
X13076424Y-11320208D02*
X13095472Y-11310684D01*
X13247853Y-11491636D02*
X13257377Y-11501160D01*
X13257377Y-11501160D02*
X13247853Y-11510684D01*
X13247853Y-11510684D02*
X13238329Y-11501160D01*
X13238329Y-11501160D02*
X13247853Y-11491636D01*
X13247853Y-11491636D02*
X13247853Y-11510684D01*
X13352615Y-11510684D02*
X13390710Y-11510684D01*
X13390710Y-11510684D02*
X13409758Y-11501160D01*
X13409758Y-11501160D02*
X13419282Y-11491636D01*
X13419282Y-11491636D02*
X13438329Y-11463065D01*
X13438329Y-11463065D02*
X13447853Y-11424969D01*
X13447853Y-11424969D02*
X13447853Y-11348779D01*
X13447853Y-11348779D02*
X13438329Y-11329731D01*
X13438329Y-11329731D02*
X13428805Y-11320208D01*
X13428805Y-11320208D02*
X13409758Y-11310684D01*
X13409758Y-11310684D02*
X13371662Y-11310684D01*
X13371662Y-11310684D02*
X13352615Y-11320208D01*
X13352615Y-11320208D02*
X13343091Y-11329731D01*
X13343091Y-11329731D02*
X13333567Y-11348779D01*
X13333567Y-11348779D02*
X13333567Y-11396398D01*
X13333567Y-11396398D02*
X13343091Y-11415446D01*
X13343091Y-11415446D02*
X13352615Y-11424969D01*
X13352615Y-11424969D02*
X13371662Y-11434493D01*
X13371662Y-11434493D02*
X13409758Y-11434493D01*
X13409758Y-11434493D02*
X13428805Y-11424969D01*
X13428805Y-11424969D02*
X13438329Y-11415446D01*
X13438329Y-11415446D02*
X13447853Y-11396398D01*
X13628805Y-11310684D02*
X13533567Y-11310684D01*
X13533567Y-11310684D02*
X13524043Y-11405922D01*
X13524043Y-11405922D02*
X13533567Y-11396398D01*
X13533567Y-11396398D02*
X13552615Y-11386874D01*
X13552615Y-11386874D02*
X13600234Y-11386874D01*
X13600234Y-11386874D02*
X13619282Y-11396398D01*
X13619282Y-11396398D02*
X13628805Y-11405922D01*
X13628805Y-11405922D02*
X13638329Y-11424969D01*
X13638329Y-11424969D02*
X13638329Y-11472588D01*
X13638329Y-11472588D02*
X13628805Y-11491636D01*
X13628805Y-11491636D02*
X13619282Y-11501160D01*
X13619282Y-11501160D02*
X13600234Y-11510684D01*
X13600234Y-11510684D02*
X13552615Y-11510684D01*
X13552615Y-11510684D02*
X13533567Y-11501160D01*
X13533567Y-11501160D02*
X13524043Y-11491636D01*
X13762139Y-11310684D02*
X13781186Y-11310684D01*
X13781186Y-11310684D02*
X13800234Y-11320208D01*
X13800234Y-11320208D02*
X13809758Y-11329731D01*
X13809758Y-11329731D02*
X13819282Y-11348779D01*
X13819282Y-11348779D02*
X13828805Y-11386874D01*
X13828805Y-11386874D02*
X13828805Y-11434493D01*
X13828805Y-11434493D02*
X13819282Y-11472588D01*
X13819282Y-11472588D02*
X13809758Y-11491636D01*
X13809758Y-11491636D02*
X13800234Y-11501160D01*
X13800234Y-11501160D02*
X13781186Y-11510684D01*
X13781186Y-11510684D02*
X13762139Y-11510684D01*
X13762139Y-11510684D02*
X13743091Y-11501160D01*
X13743091Y-11501160D02*
X13733567Y-11491636D01*
X13733567Y-11491636D02*
X13724043Y-11472588D01*
X13724043Y-11472588D02*
X13714520Y-11434493D01*
X13714520Y-11434493D02*
X13714520Y-11386874D01*
X13714520Y-11386874D02*
X13724043Y-11348779D01*
X13724043Y-11348779D02*
X13733567Y-11329731D01*
X13733567Y-11329731D02*
X13743091Y-11320208D01*
X13743091Y-11320208D02*
X13762139Y-11310684D01*
X13914520Y-11510684D02*
X13914520Y-11377350D01*
X13914520Y-11396398D02*
X13924043Y-11386874D01*
X13924043Y-11386874D02*
X13943091Y-11377350D01*
X13943091Y-11377350D02*
X13971663Y-11377350D01*
X13971663Y-11377350D02*
X13990710Y-11386874D01*
X13990710Y-11386874D02*
X14000234Y-11405922D01*
X14000234Y-11405922D02*
X14000234Y-11510684D01*
X14000234Y-11405922D02*
X14009758Y-11386874D01*
X14009758Y-11386874D02*
X14028805Y-11377350D01*
X14028805Y-11377350D02*
X14057377Y-11377350D01*
X14057377Y-11377350D02*
X14076424Y-11386874D01*
X14076424Y-11386874D02*
X14085948Y-11405922D01*
X14085948Y-11405922D02*
X14085948Y-11510684D01*
X14181186Y-11510684D02*
X14181186Y-11377350D01*
X14181186Y-11396398D02*
X14190710Y-11386874D01*
X14190710Y-11386874D02*
X14209758Y-11377350D01*
X14209758Y-11377350D02*
X14238329Y-11377350D01*
X14238329Y-11377350D02*
X14257377Y-11386874D01*
X14257377Y-11386874D02*
X14266901Y-11405922D01*
X14266901Y-11405922D02*
X14266901Y-11510684D01*
X14266901Y-11405922D02*
X14276424Y-11386874D01*
X14276424Y-11386874D02*
X14295472Y-11377350D01*
X14295472Y-11377350D02*
X14324043Y-11377350D01*
X14324043Y-11377350D02*
X14343091Y-11386874D01*
X14343091Y-11386874D02*
X14352615Y-11405922D01*
X14352615Y-11405922D02*
X14352615Y-11510684D01*
X14743091Y-11301160D02*
X14571663Y-11558303D01*
X15000234Y-11310684D02*
X15019282Y-11310684D01*
X15019282Y-11310684D02*
X15038329Y-11320208D01*
X15038329Y-11320208D02*
X15047853Y-11329731D01*
X15047853Y-11329731D02*
X15057377Y-11348779D01*
X15057377Y-11348779D02*
X15066901Y-11386874D01*
X15066901Y-11386874D02*
X15066901Y-11434493D01*
X15066901Y-11434493D02*
X15057377Y-11472588D01*
X15057377Y-11472588D02*
X15047853Y-11491636D01*
X15047853Y-11491636D02*
X15038329Y-11501160D01*
X15038329Y-11501160D02*
X15019282Y-11510684D01*
X15019282Y-11510684D02*
X15000234Y-11510684D01*
X15000234Y-11510684D02*
X14981186Y-11501160D01*
X14981186Y-11501160D02*
X14971663Y-11491636D01*
X14971663Y-11491636D02*
X14962139Y-11472588D01*
X14962139Y-11472588D02*
X14952615Y-11434493D01*
X14952615Y-11434493D02*
X14952615Y-11386874D01*
X14952615Y-11386874D02*
X14962139Y-11348779D01*
X14962139Y-11348779D02*
X14971663Y-11329731D01*
X14971663Y-11329731D02*
X14981186Y-11320208D01*
X14981186Y-11320208D02*
X15000234Y-11310684D01*
X15152615Y-11491636D02*
X15162139Y-11501160D01*
X15162139Y-11501160D02*
X15152615Y-11510684D01*
X15152615Y-11510684D02*
X15143091Y-11501160D01*
X15143091Y-11501160D02*
X15152615Y-11491636D01*
X15152615Y-11491636D02*
X15152615Y-11510684D01*
X15285948Y-11310684D02*
X15304996Y-11310684D01*
X15304996Y-11310684D02*
X15324044Y-11320208D01*
X15324044Y-11320208D02*
X15333567Y-11329731D01*
X15333567Y-11329731D02*
X15343091Y-11348779D01*
X15343091Y-11348779D02*
X15352615Y-11386874D01*
X15352615Y-11386874D02*
X15352615Y-11434493D01*
X15352615Y-11434493D02*
X15343091Y-11472588D01*
X15343091Y-11472588D02*
X15333567Y-11491636D01*
X15333567Y-11491636D02*
X15324044Y-11501160D01*
X15324044Y-11501160D02*
X15304996Y-11510684D01*
X15304996Y-11510684D02*
X15285948Y-11510684D01*
X15285948Y-11510684D02*
X15266901Y-11501160D01*
X15266901Y-11501160D02*
X15257377Y-11491636D01*
X15257377Y-11491636D02*
X15247853Y-11472588D01*
X15247853Y-11472588D02*
X15238329Y-11434493D01*
X15238329Y-11434493D02*
X15238329Y-11386874D01*
X15238329Y-11386874D02*
X15247853Y-11348779D01*
X15247853Y-11348779D02*
X15257377Y-11329731D01*
X15257377Y-11329731D02*
X15266901Y-11320208D01*
X15266901Y-11320208D02*
X15285948Y-11310684D01*
X15419282Y-11310684D02*
X15543091Y-11310684D01*
X15543091Y-11310684D02*
X15476425Y-11386874D01*
X15476425Y-11386874D02*
X15504996Y-11386874D01*
X15504996Y-11386874D02*
X15524044Y-11396398D01*
X15524044Y-11396398D02*
X15533567Y-11405922D01*
X15533567Y-11405922D02*
X15543091Y-11424969D01*
X15543091Y-11424969D02*
X15543091Y-11472588D01*
X15543091Y-11472588D02*
X15533567Y-11491636D01*
X15533567Y-11491636D02*
X15524044Y-11501160D01*
X15524044Y-11501160D02*
X15504996Y-11510684D01*
X15504996Y-11510684D02*
X15447853Y-11510684D01*
X15447853Y-11510684D02*
X15428806Y-11501160D01*
X15428806Y-11501160D02*
X15419282Y-11491636D01*
X15609758Y-11310684D02*
X15743091Y-11310684D01*
X15743091Y-11310684D02*
X15657377Y-11510684D01*
X15904996Y-11377350D02*
X15904996Y-11510684D01*
X15857377Y-11301160D02*
X15809758Y-11444017D01*
X15809758Y-11444017D02*
X15933567Y-11444017D01*
X16000234Y-11310684D02*
X16000234Y-11348779D01*
X16076425Y-11310684D02*
X16076425Y-11348779D01*
X16371663Y-11586874D02*
X16362139Y-11577350D01*
X16362139Y-11577350D02*
X16343091Y-11548779D01*
X16343091Y-11548779D02*
X16333568Y-11529731D01*
X16333568Y-11529731D02*
X16324044Y-11501160D01*
X16324044Y-11501160D02*
X16314520Y-11453541D01*
X16314520Y-11453541D02*
X16314520Y-11415446D01*
X16314520Y-11415446D02*
X16324044Y-11367827D01*
X16324044Y-11367827D02*
X16333568Y-11339255D01*
X16333568Y-11339255D02*
X16343091Y-11320208D01*
X16343091Y-11320208D02*
X16362139Y-11291636D01*
X16362139Y-11291636D02*
X16371663Y-11282112D01*
X16428806Y-11310684D02*
X16552615Y-11310684D01*
X16552615Y-11310684D02*
X16485948Y-11386874D01*
X16485948Y-11386874D02*
X16514520Y-11386874D01*
X16514520Y-11386874D02*
X16533568Y-11396398D01*
X16533568Y-11396398D02*
X16543091Y-11405922D01*
X16543091Y-11405922D02*
X16552615Y-11424969D01*
X16552615Y-11424969D02*
X16552615Y-11472588D01*
X16552615Y-11472588D02*
X16543091Y-11491636D01*
X16543091Y-11491636D02*
X16533568Y-11501160D01*
X16533568Y-11501160D02*
X16514520Y-11510684D01*
X16514520Y-11510684D02*
X16457377Y-11510684D01*
X16457377Y-11510684D02*
X16438329Y-11501160D01*
X16438329Y-11501160D02*
X16428806Y-11491636D01*
X16790711Y-11510684D02*
X16790711Y-11310684D01*
X16876425Y-11510684D02*
X16876425Y-11405922D01*
X16876425Y-11405922D02*
X16866901Y-11386874D01*
X16866901Y-11386874D02*
X16847853Y-11377350D01*
X16847853Y-11377350D02*
X16819282Y-11377350D01*
X16819282Y-11377350D02*
X16800234Y-11386874D01*
X16800234Y-11386874D02*
X16790711Y-11396398D01*
X17000234Y-11510684D02*
X16981187Y-11501160D01*
X16981187Y-11501160D02*
X16971663Y-11491636D01*
X16971663Y-11491636D02*
X16962139Y-11472588D01*
X16962139Y-11472588D02*
X16962139Y-11415446D01*
X16962139Y-11415446D02*
X16971663Y-11396398D01*
X16971663Y-11396398D02*
X16981187Y-11386874D01*
X16981187Y-11386874D02*
X17000234Y-11377350D01*
X17000234Y-11377350D02*
X17028806Y-11377350D01*
X17028806Y-11377350D02*
X17047853Y-11386874D01*
X17047853Y-11386874D02*
X17057377Y-11396398D01*
X17057377Y-11396398D02*
X17066901Y-11415446D01*
X17066901Y-11415446D02*
X17066901Y-11472588D01*
X17066901Y-11472588D02*
X17057377Y-11491636D01*
X17057377Y-11491636D02*
X17047853Y-11501160D01*
X17047853Y-11501160D02*
X17028806Y-11510684D01*
X17028806Y-11510684D02*
X17000234Y-11510684D01*
X17181187Y-11510684D02*
X17162139Y-11501160D01*
X17162139Y-11501160D02*
X17152615Y-11482112D01*
X17152615Y-11482112D02*
X17152615Y-11310684D01*
X17333568Y-11501160D02*
X17314520Y-11510684D01*
X17314520Y-11510684D02*
X17276425Y-11510684D01*
X17276425Y-11510684D02*
X17257377Y-11501160D01*
X17257377Y-11501160D02*
X17247853Y-11482112D01*
X17247853Y-11482112D02*
X17247853Y-11405922D01*
X17247853Y-11405922D02*
X17257377Y-11386874D01*
X17257377Y-11386874D02*
X17276425Y-11377350D01*
X17276425Y-11377350D02*
X17314520Y-11377350D01*
X17314520Y-11377350D02*
X17333568Y-11386874D01*
X17333568Y-11386874D02*
X17343092Y-11405922D01*
X17343092Y-11405922D02*
X17343092Y-11424969D01*
X17343092Y-11424969D02*
X17247853Y-11444017D01*
X17419282Y-11501160D02*
X17438330Y-11510684D01*
X17438330Y-11510684D02*
X17476425Y-11510684D01*
X17476425Y-11510684D02*
X17495473Y-11501160D01*
X17495473Y-11501160D02*
X17504996Y-11482112D01*
X17504996Y-11482112D02*
X17504996Y-11472588D01*
X17504996Y-11472588D02*
X17495473Y-11453541D01*
X17495473Y-11453541D02*
X17476425Y-11444017D01*
X17476425Y-11444017D02*
X17447853Y-11444017D01*
X17447853Y-11444017D02*
X17428806Y-11434493D01*
X17428806Y-11434493D02*
X17419282Y-11415446D01*
X17419282Y-11415446D02*
X17419282Y-11405922D01*
X17419282Y-11405922D02*
X17428806Y-11386874D01*
X17428806Y-11386874D02*
X17447853Y-11377350D01*
X17447853Y-11377350D02*
X17476425Y-11377350D01*
X17476425Y-11377350D02*
X17495473Y-11386874D01*
X17571663Y-11586874D02*
X17581187Y-11577350D01*
X17581187Y-11577350D02*
X17600234Y-11548779D01*
X17600234Y-11548779D02*
X17609758Y-11529731D01*
X17609758Y-11529731D02*
X17619282Y-11501160D01*
X17619282Y-11501160D02*
X17628806Y-11453541D01*
X17628806Y-11453541D02*
X17628806Y-11415446D01*
X17628806Y-11415446D02*
X17619282Y-11367827D01*
X17619282Y-11367827D02*
X17609758Y-11339255D01*
X17609758Y-11339255D02*
X17600234Y-11320208D01*
X17600234Y-11320208D02*
X17581187Y-11291636D01*
X17581187Y-11291636D02*
X17571663Y-11282112D01*
D10*
X12746600Y-11733200D02*
X12796600Y-11683200D01*
X12746600Y-11633200D01*
X12696600Y-11683200D01*
X12746600Y-11733200D01*
D11*
X13162139Y-11774684D02*
X13047853Y-11774684D01*
X13104996Y-11774684D02*
X13104996Y-11574684D01*
X13104996Y-11574684D02*
X13085948Y-11603255D01*
X13085948Y-11603255D02*
X13066901Y-11622303D01*
X13066901Y-11622303D02*
X13047853Y-11631827D01*
X13247853Y-11755636D02*
X13257377Y-11765160D01*
X13257377Y-11765160D02*
X13247853Y-11774684D01*
X13247853Y-11774684D02*
X13238329Y-11765160D01*
X13238329Y-11765160D02*
X13247853Y-11755636D01*
X13247853Y-11755636D02*
X13247853Y-11774684D01*
X13381186Y-11574684D02*
X13400234Y-11574684D01*
X13400234Y-11574684D02*
X13419282Y-11584208D01*
X13419282Y-11584208D02*
X13428805Y-11593731D01*
X13428805Y-11593731D02*
X13438329Y-11612779D01*
X13438329Y-11612779D02*
X13447853Y-11650874D01*
X13447853Y-11650874D02*
X13447853Y-11698493D01*
X13447853Y-11698493D02*
X13438329Y-11736588D01*
X13438329Y-11736588D02*
X13428805Y-11755636D01*
X13428805Y-11755636D02*
X13419282Y-11765160D01*
X13419282Y-11765160D02*
X13400234Y-11774684D01*
X13400234Y-11774684D02*
X13381186Y-11774684D01*
X13381186Y-11774684D02*
X13362139Y-11765160D01*
X13362139Y-11765160D02*
X13352615Y-11755636D01*
X13352615Y-11755636D02*
X13343091Y-11736588D01*
X13343091Y-11736588D02*
X13333567Y-11698493D01*
X13333567Y-11698493D02*
X13333567Y-11650874D01*
X13333567Y-11650874D02*
X13343091Y-11612779D01*
X13343091Y-11612779D02*
X13352615Y-11593731D01*
X13352615Y-11593731D02*
X13362139Y-11584208D01*
X13362139Y-11584208D02*
X13381186Y-11574684D01*
X13571662Y-11574684D02*
X13590710Y-11574684D01*
X13590710Y-11574684D02*
X13609758Y-11584208D01*
X13609758Y-11584208D02*
X13619282Y-11593731D01*
X13619282Y-11593731D02*
X13628805Y-11612779D01*
X13628805Y-11612779D02*
X13638329Y-11650874D01*
X13638329Y-11650874D02*
X13638329Y-11698493D01*
X13638329Y-11698493D02*
X13628805Y-11736588D01*
X13628805Y-11736588D02*
X13619282Y-11755636D01*
X13619282Y-11755636D02*
X13609758Y-11765160D01*
X13609758Y-11765160D02*
X13590710Y-11774684D01*
X13590710Y-11774684D02*
X13571662Y-11774684D01*
X13571662Y-11774684D02*
X13552615Y-11765160D01*
X13552615Y-11765160D02*
X13543091Y-11755636D01*
X13543091Y-11755636D02*
X13533567Y-11736588D01*
X13533567Y-11736588D02*
X13524043Y-11698493D01*
X13524043Y-11698493D02*
X13524043Y-11650874D01*
X13524043Y-11650874D02*
X13533567Y-11612779D01*
X13533567Y-11612779D02*
X13543091Y-11593731D01*
X13543091Y-11593731D02*
X13552615Y-11584208D01*
X13552615Y-11584208D02*
X13571662Y-11574684D01*
X13762139Y-11574684D02*
X13781186Y-11574684D01*
X13781186Y-11574684D02*
X13800234Y-11584208D01*
X13800234Y-11584208D02*
X13809758Y-11593731D01*
X13809758Y-11593731D02*
X13819282Y-11612779D01*
X13819282Y-11612779D02*
X13828805Y-11650874D01*
X13828805Y-11650874D02*
X13828805Y-11698493D01*
X13828805Y-11698493D02*
X13819282Y-11736588D01*
X13819282Y-11736588D02*
X13809758Y-11755636D01*
X13809758Y-11755636D02*
X13800234Y-11765160D01*
X13800234Y-11765160D02*
X13781186Y-11774684D01*
X13781186Y-11774684D02*
X13762139Y-11774684D01*
X13762139Y-11774684D02*
X13743091Y-11765160D01*
X13743091Y-11765160D02*
X13733567Y-11755636D01*
X13733567Y-11755636D02*
X13724043Y-11736588D01*
X13724043Y-11736588D02*
X13714520Y-11698493D01*
X13714520Y-11698493D02*
X13714520Y-11650874D01*
X13714520Y-11650874D02*
X13724043Y-11612779D01*
X13724043Y-11612779D02*
X13733567Y-11593731D01*
X13733567Y-11593731D02*
X13743091Y-11584208D01*
X13743091Y-11584208D02*
X13762139Y-11574684D01*
X13914520Y-11774684D02*
X13914520Y-11641350D01*
X13914520Y-11660398D02*
X13924043Y-11650874D01*
X13924043Y-11650874D02*
X13943091Y-11641350D01*
X13943091Y-11641350D02*
X13971663Y-11641350D01*
X13971663Y-11641350D02*
X13990710Y-11650874D01*
X13990710Y-11650874D02*
X14000234Y-11669922D01*
X14000234Y-11669922D02*
X14000234Y-11774684D01*
X14000234Y-11669922D02*
X14009758Y-11650874D01*
X14009758Y-11650874D02*
X14028805Y-11641350D01*
X14028805Y-11641350D02*
X14057377Y-11641350D01*
X14057377Y-11641350D02*
X14076424Y-11650874D01*
X14076424Y-11650874D02*
X14085948Y-11669922D01*
X14085948Y-11669922D02*
X14085948Y-11774684D01*
X14181186Y-11774684D02*
X14181186Y-11641350D01*
X14181186Y-11660398D02*
X14190710Y-11650874D01*
X14190710Y-11650874D02*
X14209758Y-11641350D01*
X14209758Y-11641350D02*
X14238329Y-11641350D01*
X14238329Y-11641350D02*
X14257377Y-11650874D01*
X14257377Y-11650874D02*
X14266901Y-11669922D01*
X14266901Y-11669922D02*
X14266901Y-11774684D01*
X14266901Y-11669922D02*
X14276424Y-11650874D01*
X14276424Y-11650874D02*
X14295472Y-11641350D01*
X14295472Y-11641350D02*
X14324043Y-11641350D01*
X14324043Y-11641350D02*
X14343091Y-11650874D01*
X14343091Y-11650874D02*
X14352615Y-11669922D01*
X14352615Y-11669922D02*
X14352615Y-11774684D01*
X14743091Y-11565160D02*
X14571663Y-11822303D01*
X15000234Y-11574684D02*
X15019282Y-11574684D01*
X15019282Y-11574684D02*
X15038329Y-11584208D01*
X15038329Y-11584208D02*
X15047853Y-11593731D01*
X15047853Y-11593731D02*
X15057377Y-11612779D01*
X15057377Y-11612779D02*
X15066901Y-11650874D01*
X15066901Y-11650874D02*
X15066901Y-11698493D01*
X15066901Y-11698493D02*
X15057377Y-11736588D01*
X15057377Y-11736588D02*
X15047853Y-11755636D01*
X15047853Y-11755636D02*
X15038329Y-11765160D01*
X15038329Y-11765160D02*
X15019282Y-11774684D01*
X15019282Y-11774684D02*
X15000234Y-11774684D01*
X15000234Y-11774684D02*
X14981186Y-11765160D01*
X14981186Y-11765160D02*
X14971663Y-11755636D01*
X14971663Y-11755636D02*
X14962139Y-11736588D01*
X14962139Y-11736588D02*
X14952615Y-11698493D01*
X14952615Y-11698493D02*
X14952615Y-11650874D01*
X14952615Y-11650874D02*
X14962139Y-11612779D01*
X14962139Y-11612779D02*
X14971663Y-11593731D01*
X14971663Y-11593731D02*
X14981186Y-11584208D01*
X14981186Y-11584208D02*
X15000234Y-11574684D01*
X15152615Y-11755636D02*
X15162139Y-11765160D01*
X15162139Y-11765160D02*
X15152615Y-11774684D01*
X15152615Y-11774684D02*
X15143091Y-11765160D01*
X15143091Y-11765160D02*
X15152615Y-11755636D01*
X15152615Y-11755636D02*
X15152615Y-11774684D01*
X15285948Y-11574684D02*
X15304996Y-11574684D01*
X15304996Y-11574684D02*
X15324044Y-11584208D01*
X15324044Y-11584208D02*
X15333567Y-11593731D01*
X15333567Y-11593731D02*
X15343091Y-11612779D01*
X15343091Y-11612779D02*
X15352615Y-11650874D01*
X15352615Y-11650874D02*
X15352615Y-11698493D01*
X15352615Y-11698493D02*
X15343091Y-11736588D01*
X15343091Y-11736588D02*
X15333567Y-11755636D01*
X15333567Y-11755636D02*
X15324044Y-11765160D01*
X15324044Y-11765160D02*
X15304996Y-11774684D01*
X15304996Y-11774684D02*
X15285948Y-11774684D01*
X15285948Y-11774684D02*
X15266901Y-11765160D01*
X15266901Y-11765160D02*
X15257377Y-11755636D01*
X15257377Y-11755636D02*
X15247853Y-11736588D01*
X15247853Y-11736588D02*
X15238329Y-11698493D01*
X15238329Y-11698493D02*
X15238329Y-11650874D01*
X15238329Y-11650874D02*
X15247853Y-11612779D01*
X15247853Y-11612779D02*
X15257377Y-11593731D01*
X15257377Y-11593731D02*
X15266901Y-11584208D01*
X15266901Y-11584208D02*
X15285948Y-11574684D01*
X15419282Y-11574684D02*
X15543091Y-11574684D01*
X15543091Y-11574684D02*
X15476425Y-11650874D01*
X15476425Y-11650874D02*
X15504996Y-11650874D01*
X15504996Y-11650874D02*
X15524044Y-11660398D01*
X15524044Y-11660398D02*
X15533567Y-11669922D01*
X15533567Y-11669922D02*
X15543091Y-11688969D01*
X15543091Y-11688969D02*
X15543091Y-11736588D01*
X15543091Y-11736588D02*
X15533567Y-11755636D01*
X15533567Y-11755636D02*
X15524044Y-11765160D01*
X15524044Y-11765160D02*
X15504996Y-11774684D01*
X15504996Y-11774684D02*
X15447853Y-11774684D01*
X15447853Y-11774684D02*
X15428806Y-11765160D01*
X15428806Y-11765160D02*
X15419282Y-11755636D01*
X15638329Y-11774684D02*
X15676425Y-11774684D01*
X15676425Y-11774684D02*
X15695472Y-11765160D01*
X15695472Y-11765160D02*
X15704996Y-11755636D01*
X15704996Y-11755636D02*
X15724044Y-11727065D01*
X15724044Y-11727065D02*
X15733567Y-11688969D01*
X15733567Y-11688969D02*
X15733567Y-11612779D01*
X15733567Y-11612779D02*
X15724044Y-11593731D01*
X15724044Y-11593731D02*
X15714520Y-11584208D01*
X15714520Y-11584208D02*
X15695472Y-11574684D01*
X15695472Y-11574684D02*
X15657377Y-11574684D01*
X15657377Y-11574684D02*
X15638329Y-11584208D01*
X15638329Y-11584208D02*
X15628806Y-11593731D01*
X15628806Y-11593731D02*
X15619282Y-11612779D01*
X15619282Y-11612779D02*
X15619282Y-11660398D01*
X15619282Y-11660398D02*
X15628806Y-11679446D01*
X15628806Y-11679446D02*
X15638329Y-11688969D01*
X15638329Y-11688969D02*
X15657377Y-11698493D01*
X15657377Y-11698493D02*
X15695472Y-11698493D01*
X15695472Y-11698493D02*
X15714520Y-11688969D01*
X15714520Y-11688969D02*
X15724044Y-11679446D01*
X15724044Y-11679446D02*
X15733567Y-11660398D01*
X15904996Y-11641350D02*
X15904996Y-11774684D01*
X15857377Y-11565160D02*
X15809758Y-11708017D01*
X15809758Y-11708017D02*
X15933567Y-11708017D01*
X16000234Y-11574684D02*
X16000234Y-11612779D01*
X16076425Y-11574684D02*
X16076425Y-11612779D01*
X16371663Y-11850874D02*
X16362139Y-11841350D01*
X16362139Y-11841350D02*
X16343091Y-11812779D01*
X16343091Y-11812779D02*
X16333568Y-11793731D01*
X16333568Y-11793731D02*
X16324044Y-11765160D01*
X16324044Y-11765160D02*
X16314520Y-11717541D01*
X16314520Y-11717541D02*
X16314520Y-11679446D01*
X16314520Y-11679446D02*
X16324044Y-11631827D01*
X16324044Y-11631827D02*
X16333568Y-11603255D01*
X16333568Y-11603255D02*
X16343091Y-11584208D01*
X16343091Y-11584208D02*
X16362139Y-11555636D01*
X16362139Y-11555636D02*
X16371663Y-11546112D01*
X16438329Y-11593731D02*
X16447853Y-11584208D01*
X16447853Y-11584208D02*
X16466901Y-11574684D01*
X16466901Y-11574684D02*
X16514520Y-11574684D01*
X16514520Y-11574684D02*
X16533568Y-11584208D01*
X16533568Y-11584208D02*
X16543091Y-11593731D01*
X16543091Y-11593731D02*
X16552615Y-11612779D01*
X16552615Y-11612779D02*
X16552615Y-11631827D01*
X16552615Y-11631827D02*
X16543091Y-11660398D01*
X16543091Y-11660398D02*
X16428806Y-11774684D01*
X16428806Y-11774684D02*
X16552615Y-11774684D01*
X16790711Y-11774684D02*
X16790711Y-11574684D01*
X16876425Y-11774684D02*
X16876425Y-11669922D01*
X16876425Y-11669922D02*
X16866901Y-11650874D01*
X16866901Y-11650874D02*
X16847853Y-11641350D01*
X16847853Y-11641350D02*
X16819282Y-11641350D01*
X16819282Y-11641350D02*
X16800234Y-11650874D01*
X16800234Y-11650874D02*
X16790711Y-11660398D01*
X17000234Y-11774684D02*
X16981187Y-11765160D01*
X16981187Y-11765160D02*
X16971663Y-11755636D01*
X16971663Y-11755636D02*
X16962139Y-11736588D01*
X16962139Y-11736588D02*
X16962139Y-11679446D01*
X16962139Y-11679446D02*
X16971663Y-11660398D01*
X16971663Y-11660398D02*
X16981187Y-11650874D01*
X16981187Y-11650874D02*
X17000234Y-11641350D01*
X17000234Y-11641350D02*
X17028806Y-11641350D01*
X17028806Y-11641350D02*
X17047853Y-11650874D01*
X17047853Y-11650874D02*
X17057377Y-11660398D01*
X17057377Y-11660398D02*
X17066901Y-11679446D01*
X17066901Y-11679446D02*
X17066901Y-11736588D01*
X17066901Y-11736588D02*
X17057377Y-11755636D01*
X17057377Y-11755636D02*
X17047853Y-11765160D01*
X17047853Y-11765160D02*
X17028806Y-11774684D01*
X17028806Y-11774684D02*
X17000234Y-11774684D01*
X17181187Y-11774684D02*
X17162139Y-11765160D01*
X17162139Y-11765160D02*
X17152615Y-11746112D01*
X17152615Y-11746112D02*
X17152615Y-11574684D01*
X17333568Y-11765160D02*
X17314520Y-11774684D01*
X17314520Y-11774684D02*
X17276425Y-11774684D01*
X17276425Y-11774684D02*
X17257377Y-11765160D01*
X17257377Y-11765160D02*
X17247853Y-11746112D01*
X17247853Y-11746112D02*
X17247853Y-11669922D01*
X17247853Y-11669922D02*
X17257377Y-11650874D01*
X17257377Y-11650874D02*
X17276425Y-11641350D01*
X17276425Y-11641350D02*
X17314520Y-11641350D01*
X17314520Y-11641350D02*
X17333568Y-11650874D01*
X17333568Y-11650874D02*
X17343092Y-11669922D01*
X17343092Y-11669922D02*
X17343092Y-11688969D01*
X17343092Y-11688969D02*
X17247853Y-11708017D01*
X17419282Y-11765160D02*
X17438330Y-11774684D01*
X17438330Y-11774684D02*
X17476425Y-11774684D01*
X17476425Y-11774684D02*
X17495473Y-11765160D01*
X17495473Y-11765160D02*
X17504996Y-11746112D01*
X17504996Y-11746112D02*
X17504996Y-11736588D01*
X17504996Y-11736588D02*
X17495473Y-11717541D01*
X17495473Y-11717541D02*
X17476425Y-11708017D01*
X17476425Y-11708017D02*
X17447853Y-11708017D01*
X17447853Y-11708017D02*
X17428806Y-11698493D01*
X17428806Y-11698493D02*
X17419282Y-11679446D01*
X17419282Y-11679446D02*
X17419282Y-11669922D01*
X17419282Y-11669922D02*
X17428806Y-11650874D01*
X17428806Y-11650874D02*
X17447853Y-11641350D01*
X17447853Y-11641350D02*
X17476425Y-11641350D01*
X17476425Y-11641350D02*
X17495473Y-11650874D01*
X17571663Y-11850874D02*
X17581187Y-11841350D01*
X17581187Y-11841350D02*
X17600234Y-11812779D01*
X17600234Y-11812779D02*
X17609758Y-11793731D01*
X17609758Y-11793731D02*
X17619282Y-11765160D01*
X17619282Y-11765160D02*
X17628806Y-11717541D01*
X17628806Y-11717541D02*
X17628806Y-11679446D01*
X17628806Y-11679446D02*
X17619282Y-11631827D01*
X17619282Y-11631827D02*
X17609758Y-11603255D01*
X17609758Y-11603255D02*
X17600234Y-11584208D01*
X17600234Y-11584208D02*
X17581187Y-11555636D01*
X17581187Y-11555636D02*
X17571663Y-11546112D01*
D12*
X12676600Y-11887200D02*
X12796600Y-12007200D01*
X12796600Y-11887200D02*
X12676600Y-12007200D01*
X12796600Y-11947200D02*
G75*
G02*
X12676600Y-11947200I-60000J0D01*
G01*
X12676600Y-11947200D02*
G75*
G02*
X12796600Y-11947200I60000J0D01*
G01*
D11*
X13162139Y-12038684D02*
X13047853Y-12038684D01*
X13104996Y-12038684D02*
X13104996Y-11838684D01*
X13104996Y-11838684D02*
X13085948Y-11867255D01*
X13085948Y-11867255D02*
X13066901Y-11886303D01*
X13066901Y-11886303D02*
X13047853Y-11895827D01*
X13247853Y-12019636D02*
X13257377Y-12029160D01*
X13257377Y-12029160D02*
X13247853Y-12038684D01*
X13247853Y-12038684D02*
X13238329Y-12029160D01*
X13238329Y-12029160D02*
X13247853Y-12019636D01*
X13247853Y-12019636D02*
X13247853Y-12038684D01*
X13333567Y-11857731D02*
X13343091Y-11848208D01*
X13343091Y-11848208D02*
X13362139Y-11838684D01*
X13362139Y-11838684D02*
X13409758Y-11838684D01*
X13409758Y-11838684D02*
X13428805Y-11848208D01*
X13428805Y-11848208D02*
X13438329Y-11857731D01*
X13438329Y-11857731D02*
X13447853Y-11876779D01*
X13447853Y-11876779D02*
X13447853Y-11895827D01*
X13447853Y-11895827D02*
X13438329Y-11924398D01*
X13438329Y-11924398D02*
X13324043Y-12038684D01*
X13324043Y-12038684D02*
X13447853Y-12038684D01*
X13571662Y-11838684D02*
X13590710Y-11838684D01*
X13590710Y-11838684D02*
X13609758Y-11848208D01*
X13609758Y-11848208D02*
X13619282Y-11857731D01*
X13619282Y-11857731D02*
X13628805Y-11876779D01*
X13628805Y-11876779D02*
X13638329Y-11914874D01*
X13638329Y-11914874D02*
X13638329Y-11962493D01*
X13638329Y-11962493D02*
X13628805Y-12000588D01*
X13628805Y-12000588D02*
X13619282Y-12019636D01*
X13619282Y-12019636D02*
X13609758Y-12029160D01*
X13609758Y-12029160D02*
X13590710Y-12038684D01*
X13590710Y-12038684D02*
X13571662Y-12038684D01*
X13571662Y-12038684D02*
X13552615Y-12029160D01*
X13552615Y-12029160D02*
X13543091Y-12019636D01*
X13543091Y-12019636D02*
X13533567Y-12000588D01*
X13533567Y-12000588D02*
X13524043Y-11962493D01*
X13524043Y-11962493D02*
X13524043Y-11914874D01*
X13524043Y-11914874D02*
X13533567Y-11876779D01*
X13533567Y-11876779D02*
X13543091Y-11857731D01*
X13543091Y-11857731D02*
X13552615Y-11848208D01*
X13552615Y-11848208D02*
X13571662Y-11838684D01*
X13762139Y-11838684D02*
X13781186Y-11838684D01*
X13781186Y-11838684D02*
X13800234Y-11848208D01*
X13800234Y-11848208D02*
X13809758Y-11857731D01*
X13809758Y-11857731D02*
X13819282Y-11876779D01*
X13819282Y-11876779D02*
X13828805Y-11914874D01*
X13828805Y-11914874D02*
X13828805Y-11962493D01*
X13828805Y-11962493D02*
X13819282Y-12000588D01*
X13819282Y-12000588D02*
X13809758Y-12019636D01*
X13809758Y-12019636D02*
X13800234Y-12029160D01*
X13800234Y-12029160D02*
X13781186Y-12038684D01*
X13781186Y-12038684D02*
X13762139Y-12038684D01*
X13762139Y-12038684D02*
X13743091Y-12029160D01*
X13743091Y-12029160D02*
X13733567Y-12019636D01*
X13733567Y-12019636D02*
X13724043Y-12000588D01*
X13724043Y-12000588D02*
X13714520Y-11962493D01*
X13714520Y-11962493D02*
X13714520Y-11914874D01*
X13714520Y-11914874D02*
X13724043Y-11876779D01*
X13724043Y-11876779D02*
X13733567Y-11857731D01*
X13733567Y-11857731D02*
X13743091Y-11848208D01*
X13743091Y-11848208D02*
X13762139Y-11838684D01*
X13914520Y-12038684D02*
X13914520Y-11905350D01*
X13914520Y-11924398D02*
X13924043Y-11914874D01*
X13924043Y-11914874D02*
X13943091Y-11905350D01*
X13943091Y-11905350D02*
X13971663Y-11905350D01*
X13971663Y-11905350D02*
X13990710Y-11914874D01*
X13990710Y-11914874D02*
X14000234Y-11933922D01*
X14000234Y-11933922D02*
X14000234Y-12038684D01*
X14000234Y-11933922D02*
X14009758Y-11914874D01*
X14009758Y-11914874D02*
X14028805Y-11905350D01*
X14028805Y-11905350D02*
X14057377Y-11905350D01*
X14057377Y-11905350D02*
X14076424Y-11914874D01*
X14076424Y-11914874D02*
X14085948Y-11933922D01*
X14085948Y-11933922D02*
X14085948Y-12038684D01*
X14181186Y-12038684D02*
X14181186Y-11905350D01*
X14181186Y-11924398D02*
X14190710Y-11914874D01*
X14190710Y-11914874D02*
X14209758Y-11905350D01*
X14209758Y-11905350D02*
X14238329Y-11905350D01*
X14238329Y-11905350D02*
X14257377Y-11914874D01*
X14257377Y-11914874D02*
X14266901Y-11933922D01*
X14266901Y-11933922D02*
X14266901Y-12038684D01*
X14266901Y-11933922D02*
X14276424Y-11914874D01*
X14276424Y-11914874D02*
X14295472Y-11905350D01*
X14295472Y-11905350D02*
X14324043Y-11905350D01*
X14324043Y-11905350D02*
X14343091Y-11914874D01*
X14343091Y-11914874D02*
X14352615Y-11933922D01*
X14352615Y-11933922D02*
X14352615Y-12038684D01*
X14743091Y-11829160D02*
X14571663Y-12086303D01*
X15000234Y-11838684D02*
X15019282Y-11838684D01*
X15019282Y-11838684D02*
X15038329Y-11848208D01*
X15038329Y-11848208D02*
X15047853Y-11857731D01*
X15047853Y-11857731D02*
X15057377Y-11876779D01*
X15057377Y-11876779D02*
X15066901Y-11914874D01*
X15066901Y-11914874D02*
X15066901Y-11962493D01*
X15066901Y-11962493D02*
X15057377Y-12000588D01*
X15057377Y-12000588D02*
X15047853Y-12019636D01*
X15047853Y-12019636D02*
X15038329Y-12029160D01*
X15038329Y-12029160D02*
X15019282Y-12038684D01*
X15019282Y-12038684D02*
X15000234Y-12038684D01*
X15000234Y-12038684D02*
X14981186Y-12029160D01*
X14981186Y-12029160D02*
X14971663Y-12019636D01*
X14971663Y-12019636D02*
X14962139Y-12000588D01*
X14962139Y-12000588D02*
X14952615Y-11962493D01*
X14952615Y-11962493D02*
X14952615Y-11914874D01*
X14952615Y-11914874D02*
X14962139Y-11876779D01*
X14962139Y-11876779D02*
X14971663Y-11857731D01*
X14971663Y-11857731D02*
X14981186Y-11848208D01*
X14981186Y-11848208D02*
X15000234Y-11838684D01*
X15152615Y-12019636D02*
X15162139Y-12029160D01*
X15162139Y-12029160D02*
X15152615Y-12038684D01*
X15152615Y-12038684D02*
X15143091Y-12029160D01*
X15143091Y-12029160D02*
X15152615Y-12019636D01*
X15152615Y-12019636D02*
X15152615Y-12038684D01*
X15285948Y-11838684D02*
X15304996Y-11838684D01*
X15304996Y-11838684D02*
X15324044Y-11848208D01*
X15324044Y-11848208D02*
X15333567Y-11857731D01*
X15333567Y-11857731D02*
X15343091Y-11876779D01*
X15343091Y-11876779D02*
X15352615Y-11914874D01*
X15352615Y-11914874D02*
X15352615Y-11962493D01*
X15352615Y-11962493D02*
X15343091Y-12000588D01*
X15343091Y-12000588D02*
X15333567Y-12019636D01*
X15333567Y-12019636D02*
X15324044Y-12029160D01*
X15324044Y-12029160D02*
X15304996Y-12038684D01*
X15304996Y-12038684D02*
X15285948Y-12038684D01*
X15285948Y-12038684D02*
X15266901Y-12029160D01*
X15266901Y-12029160D02*
X15257377Y-12019636D01*
X15257377Y-12019636D02*
X15247853Y-12000588D01*
X15247853Y-12000588D02*
X15238329Y-11962493D01*
X15238329Y-11962493D02*
X15238329Y-11914874D01*
X15238329Y-11914874D02*
X15247853Y-11876779D01*
X15247853Y-11876779D02*
X15257377Y-11857731D01*
X15257377Y-11857731D02*
X15266901Y-11848208D01*
X15266901Y-11848208D02*
X15285948Y-11838684D01*
X15524044Y-11905350D02*
X15524044Y-12038684D01*
X15476425Y-11829160D02*
X15428806Y-11972017D01*
X15428806Y-11972017D02*
X15552615Y-11972017D01*
X15609758Y-11838684D02*
X15743091Y-11838684D01*
X15743091Y-11838684D02*
X15657377Y-12038684D01*
X15809758Y-11857731D02*
X15819282Y-11848208D01*
X15819282Y-11848208D02*
X15838329Y-11838684D01*
X15838329Y-11838684D02*
X15885948Y-11838684D01*
X15885948Y-11838684D02*
X15904996Y-11848208D01*
X15904996Y-11848208D02*
X15914520Y-11857731D01*
X15914520Y-11857731D02*
X15924044Y-11876779D01*
X15924044Y-11876779D02*
X15924044Y-11895827D01*
X15924044Y-11895827D02*
X15914520Y-11924398D01*
X15914520Y-11924398D02*
X15800234Y-12038684D01*
X15800234Y-12038684D02*
X15924044Y-12038684D01*
X16000234Y-11838684D02*
X16000234Y-11876779D01*
X16076425Y-11838684D02*
X16076425Y-11876779D01*
X16371663Y-12114874D02*
X16362139Y-12105350D01*
X16362139Y-12105350D02*
X16343091Y-12076779D01*
X16343091Y-12076779D02*
X16333568Y-12057731D01*
X16333568Y-12057731D02*
X16324044Y-12029160D01*
X16324044Y-12029160D02*
X16314520Y-11981541D01*
X16314520Y-11981541D02*
X16314520Y-11943446D01*
X16314520Y-11943446D02*
X16324044Y-11895827D01*
X16324044Y-11895827D02*
X16333568Y-11867255D01*
X16333568Y-11867255D02*
X16343091Y-11848208D01*
X16343091Y-11848208D02*
X16362139Y-11819636D01*
X16362139Y-11819636D02*
X16371663Y-11810112D01*
X16552615Y-12038684D02*
X16438329Y-12038684D01*
X16495472Y-12038684D02*
X16495472Y-11838684D01*
X16495472Y-11838684D02*
X16476425Y-11867255D01*
X16476425Y-11867255D02*
X16457377Y-11886303D01*
X16457377Y-11886303D02*
X16438329Y-11895827D01*
X16790711Y-12038684D02*
X16790711Y-11838684D01*
X16876425Y-12038684D02*
X16876425Y-11933922D01*
X16876425Y-11933922D02*
X16866901Y-11914874D01*
X16866901Y-11914874D02*
X16847853Y-11905350D01*
X16847853Y-11905350D02*
X16819282Y-11905350D01*
X16819282Y-11905350D02*
X16800234Y-11914874D01*
X16800234Y-11914874D02*
X16790711Y-11924398D01*
X17000234Y-12038684D02*
X16981187Y-12029160D01*
X16981187Y-12029160D02*
X16971663Y-12019636D01*
X16971663Y-12019636D02*
X16962139Y-12000588D01*
X16962139Y-12000588D02*
X16962139Y-11943446D01*
X16962139Y-11943446D02*
X16971663Y-11924398D01*
X16971663Y-11924398D02*
X16981187Y-11914874D01*
X16981187Y-11914874D02*
X17000234Y-11905350D01*
X17000234Y-11905350D02*
X17028806Y-11905350D01*
X17028806Y-11905350D02*
X17047853Y-11914874D01*
X17047853Y-11914874D02*
X17057377Y-11924398D01*
X17057377Y-11924398D02*
X17066901Y-11943446D01*
X17066901Y-11943446D02*
X17066901Y-12000588D01*
X17066901Y-12000588D02*
X17057377Y-12019636D01*
X17057377Y-12019636D02*
X17047853Y-12029160D01*
X17047853Y-12029160D02*
X17028806Y-12038684D01*
X17028806Y-12038684D02*
X17000234Y-12038684D01*
X17181187Y-12038684D02*
X17162139Y-12029160D01*
X17162139Y-12029160D02*
X17152615Y-12010112D01*
X17152615Y-12010112D02*
X17152615Y-11838684D01*
X17333568Y-12029160D02*
X17314520Y-12038684D01*
X17314520Y-12038684D02*
X17276425Y-12038684D01*
X17276425Y-12038684D02*
X17257377Y-12029160D01*
X17257377Y-12029160D02*
X17247853Y-12010112D01*
X17247853Y-12010112D02*
X17247853Y-11933922D01*
X17247853Y-11933922D02*
X17257377Y-11914874D01*
X17257377Y-11914874D02*
X17276425Y-11905350D01*
X17276425Y-11905350D02*
X17314520Y-11905350D01*
X17314520Y-11905350D02*
X17333568Y-11914874D01*
X17333568Y-11914874D02*
X17343092Y-11933922D01*
X17343092Y-11933922D02*
X17343092Y-11952969D01*
X17343092Y-11952969D02*
X17247853Y-11972017D01*
X17409758Y-12114874D02*
X17419282Y-12105350D01*
X17419282Y-12105350D02*
X17438330Y-12076779D01*
X17438330Y-12076779D02*
X17447853Y-12057731D01*
X17447853Y-12057731D02*
X17457377Y-12029160D01*
X17457377Y-12029160D02*
X17466901Y-11981541D01*
X17466901Y-11981541D02*
X17466901Y-11943446D01*
X17466901Y-11943446D02*
X17457377Y-11895827D01*
X17457377Y-11895827D02*
X17447853Y-11867255D01*
X17447853Y-11867255D02*
X17438330Y-11848208D01*
X17438330Y-11848208D02*
X17419282Y-11819636D01*
X17419282Y-11819636D02*
X17409758Y-11810112D01*
X17771663Y-12114874D02*
X17762139Y-12105350D01*
X17762139Y-12105350D02*
X17743092Y-12076779D01*
X17743092Y-12076779D02*
X17733568Y-12057731D01*
X17733568Y-12057731D02*
X17724044Y-12029160D01*
X17724044Y-12029160D02*
X17714520Y-11981541D01*
X17714520Y-11981541D02*
X17714520Y-11943446D01*
X17714520Y-11943446D02*
X17724044Y-11895827D01*
X17724044Y-11895827D02*
X17733568Y-11867255D01*
X17733568Y-11867255D02*
X17743092Y-11848208D01*
X17743092Y-11848208D02*
X17762139Y-11819636D01*
X17762139Y-11819636D02*
X17771663Y-11810112D01*
X17847853Y-11905350D02*
X17847853Y-12038684D01*
X17847853Y-11924398D02*
X17857377Y-11914874D01*
X17857377Y-11914874D02*
X17876425Y-11905350D01*
X17876425Y-11905350D02*
X17904996Y-11905350D01*
X17904996Y-11905350D02*
X17924044Y-11914874D01*
X17924044Y-11914874D02*
X17933568Y-11933922D01*
X17933568Y-11933922D02*
X17933568Y-12038684D01*
X18057377Y-12038684D02*
X18038330Y-12029160D01*
X18038330Y-12029160D02*
X18028806Y-12019636D01*
X18028806Y-12019636D02*
X18019282Y-12000588D01*
X18019282Y-12000588D02*
X18019282Y-11943446D01*
X18019282Y-11943446D02*
X18028806Y-11924398D01*
X18028806Y-11924398D02*
X18038330Y-11914874D01*
X18038330Y-11914874D02*
X18057377Y-11905350D01*
X18057377Y-11905350D02*
X18085949Y-11905350D01*
X18085949Y-11905350D02*
X18104996Y-11914874D01*
X18104996Y-11914874D02*
X18114520Y-11924398D01*
X18114520Y-11924398D02*
X18124044Y-11943446D01*
X18124044Y-11943446D02*
X18124044Y-12000588D01*
X18124044Y-12000588D02*
X18114520Y-12019636D01*
X18114520Y-12019636D02*
X18104996Y-12029160D01*
X18104996Y-12029160D02*
X18085949Y-12038684D01*
X18085949Y-12038684D02*
X18057377Y-12038684D01*
X18181187Y-11905350D02*
X18257377Y-11905350D01*
X18209758Y-11838684D02*
X18209758Y-12010112D01*
X18209758Y-12010112D02*
X18219282Y-12029160D01*
X18219282Y-12029160D02*
X18238330Y-12038684D01*
X18238330Y-12038684D02*
X18257377Y-12038684D01*
X18476425Y-11905350D02*
X18476425Y-12105350D01*
X18476425Y-11914874D02*
X18495473Y-11905350D01*
X18495473Y-11905350D02*
X18533568Y-11905350D01*
X18533568Y-11905350D02*
X18552615Y-11914874D01*
X18552615Y-11914874D02*
X18562139Y-11924398D01*
X18562139Y-11924398D02*
X18571663Y-11943446D01*
X18571663Y-11943446D02*
X18571663Y-12000588D01*
X18571663Y-12000588D02*
X18562139Y-12019636D01*
X18562139Y-12019636D02*
X18552615Y-12029160D01*
X18552615Y-12029160D02*
X18533568Y-12038684D01*
X18533568Y-12038684D02*
X18495473Y-12038684D01*
X18495473Y-12038684D02*
X18476425Y-12029160D01*
X18685949Y-12038684D02*
X18666901Y-12029160D01*
X18666901Y-12029160D02*
X18657377Y-12010112D01*
X18657377Y-12010112D02*
X18657377Y-11838684D01*
X18847854Y-12038684D02*
X18847854Y-11933922D01*
X18847854Y-11933922D02*
X18838330Y-11914874D01*
X18838330Y-11914874D02*
X18819282Y-11905350D01*
X18819282Y-11905350D02*
X18781187Y-11905350D01*
X18781187Y-11905350D02*
X18762139Y-11914874D01*
X18847854Y-12029160D02*
X18828806Y-12038684D01*
X18828806Y-12038684D02*
X18781187Y-12038684D01*
X18781187Y-12038684D02*
X18762139Y-12029160D01*
X18762139Y-12029160D02*
X18752615Y-12010112D01*
X18752615Y-12010112D02*
X18752615Y-11991065D01*
X18752615Y-11991065D02*
X18762139Y-11972017D01*
X18762139Y-11972017D02*
X18781187Y-11962493D01*
X18781187Y-11962493D02*
X18828806Y-11962493D01*
X18828806Y-11962493D02*
X18847854Y-11952969D01*
X18914520Y-11905350D02*
X18990711Y-11905350D01*
X18943092Y-11838684D02*
X18943092Y-12010112D01*
X18943092Y-12010112D02*
X18952615Y-12029160D01*
X18952615Y-12029160D02*
X18971663Y-12038684D01*
X18971663Y-12038684D02*
X18990711Y-12038684D01*
X19133568Y-12029160D02*
X19114520Y-12038684D01*
X19114520Y-12038684D02*
X19076425Y-12038684D01*
X19076425Y-12038684D02*
X19057377Y-12029160D01*
X19057377Y-12029160D02*
X19047854Y-12010112D01*
X19047854Y-12010112D02*
X19047854Y-11933922D01*
X19047854Y-11933922D02*
X19057377Y-11914874D01*
X19057377Y-11914874D02*
X19076425Y-11905350D01*
X19076425Y-11905350D02*
X19114520Y-11905350D01*
X19114520Y-11905350D02*
X19133568Y-11914874D01*
X19133568Y-11914874D02*
X19143092Y-11933922D01*
X19143092Y-11933922D02*
X19143092Y-11952969D01*
X19143092Y-11952969D02*
X19047854Y-11972017D01*
X19314520Y-12038684D02*
X19314520Y-11838684D01*
X19314520Y-12029160D02*
X19295473Y-12038684D01*
X19295473Y-12038684D02*
X19257377Y-12038684D01*
X19257377Y-12038684D02*
X19238330Y-12029160D01*
X19238330Y-12029160D02*
X19228806Y-12019636D01*
X19228806Y-12019636D02*
X19219282Y-12000588D01*
X19219282Y-12000588D02*
X19219282Y-11943446D01*
X19219282Y-11943446D02*
X19228806Y-11924398D01*
X19228806Y-11924398D02*
X19238330Y-11914874D01*
X19238330Y-11914874D02*
X19257377Y-11905350D01*
X19257377Y-11905350D02*
X19295473Y-11905350D01*
X19295473Y-11905350D02*
X19314520Y-11914874D01*
X19390711Y-12114874D02*
X19400235Y-12105350D01*
X19400235Y-12105350D02*
X19419282Y-12076779D01*
X19419282Y-12076779D02*
X19428806Y-12057731D01*
X19428806Y-12057731D02*
X19438330Y-12029160D01*
X19438330Y-12029160D02*
X19447854Y-11981541D01*
X19447854Y-11981541D02*
X19447854Y-11943446D01*
X19447854Y-11943446D02*
X19438330Y-11895827D01*
X19438330Y-11895827D02*
X19428806Y-11867255D01*
X19428806Y-11867255D02*
X19419282Y-11848208D01*
X19419282Y-11848208D02*
X19400235Y-11819636D01*
X19400235Y-11819636D02*
X19390711Y-11810112D01*
M02*
